<svg width="24" height="24" viewBox="0 0 24 24" fill="none" xmlns="http://www.w3.org/2000/svg">
<path d="M23.2969 9.42188H21.3076C21.0974 8.65997 20.7949 7.93027 20.4041 7.24195L21.8112 5.83491C22.0858 5.56031 22.0858 5.11514 21.8112 4.84055L19.1595 2.18887C18.885 1.91428 18.4398 1.91433 18.1652 2.18887L16.7581 3.59592C16.0698 3.20512 15.3401 2.90264 14.5782 2.69241V0.703125C14.5782 0.314812 14.2634 0 13.875 0H10.125C9.73673 0 9.42192 0.314812 9.42192 0.703125V2.69241C8.66002 2.90264 7.93031 3.20512 7.242 3.59592L5.83491 2.18887C5.56036 1.91433 5.11514 1.91428 4.84055 2.18887L2.18892 4.84055C1.91433 5.11514 1.91433 5.56031 2.18892 5.83491L3.59597 7.24195C3.20512 7.93027 2.90269 8.65997 2.6925 9.42188H0.703125C0.314812 9.42188 0 9.73669 0 10.125V13.875C0 14.2633 0.314812 14.5781 0.703125 14.5781H2.69241C2.90259 15.34 3.20508 16.0697 3.59587 16.758L2.18883 18.1651C1.91423 18.4397 1.91423 18.8849 2.18883 19.1595L4.84045 21.8111C5.115 22.0857 5.56022 22.0857 5.83481 21.8111L7.24191 20.4041C7.93022 20.7949 8.65992 21.0974 9.42183 21.3076V23.2969C9.42183 23.6852 9.73664 24 10.125 24H13.875C14.2633 24 14.5781 23.6852 14.5781 23.2969V21.3076C15.34 21.0974 16.0697 20.7949 16.758 20.4041L18.1651 21.8111C18.4396 22.0857 18.8849 22.0857 19.1595 21.8111L21.8111 19.1595C22.0857 18.8849 22.0857 18.4397 21.8111 18.1651L20.404 16.758C20.7949 16.0697 21.0973 15.34 21.3075 14.5781H23.2969C23.6852 14.5781 24 14.2633 24 13.875V10.125C24 9.73669 23.6852 9.42188 23.2969 9.42188ZM12 17.3906C9.02761 17.3906 6.60938 14.9724 6.60938 12C6.60938 9.02761 9.02761 6.60938 12 6.60938C14.9724 6.60938 17.3906 9.02761 17.3906 12C17.3906 14.9724 14.9724 17.3906 12 17.3906Z" fill="#8C8C8C"/>
</svg>
