<svg width="52" height="43" viewBox="0 0 52 43" fill="none" xmlns="http://www.w3.org/2000/svg">
<g clip-path="url(#clip0)">
<path d="M51.3804 40.0163L39.2612 29.9946C38.4354 29.3117 37.098 29.3117 36.2722 29.9946C35.4464 30.6769 35.4464 31.784 36.2722 32.4662L48.3914 42.4879C48.8043 42.8293 49.3448 43.0001 49.8859 43.0001C50.4263 43.0001 50.9675 42.8293 51.3804 42.4879C52.2062 41.8056 52.2062 40.6986 51.3804 40.0163Z" fill="#8C8C8C"/>
<path d="M22.8997 0C10.2731 0 0 8.4951 0 18.9363C0 29.3781 10.2731 37.8726 22.8997 37.8726C35.527 37.8726 45.7994 29.3781 45.7994 18.9363C45.7994 8.4951 35.527 0 22.8997 0ZM22.8997 34.3767C12.604 34.3767 4.22764 27.4501 4.22764 18.9364C4.22764 10.4226 12.604 3.49593 22.8997 3.49593C33.1954 3.49593 41.5718 10.4225 41.5718 18.9363C41.5718 27.45 33.1954 34.3767 22.8997 34.3767Z" fill="#8C8C8C"/>
</g>
<defs>
<clipPath id="clip0">
<rect width="52" height="43" fill="white"/>
</clipPath>
</defs>
</svg>
