<svg width="25" height="25" viewBox="0 0 25 25" fill="none" xmlns="http://www.w3.org/2000/svg">
<path d="M9.0062 13.0208H7.19775C6.89936 13.0208 6.65522 12.7767 6.65522 12.4783V10.6698C6.65522 10.3715 6.89936 10.1273 7.19775 10.1273H9.0062C9.3046 10.1273 9.54874 10.3715 9.54874 10.6698V12.4783C9.54874 12.7767 9.3046 13.0208 9.0062 13.0208ZM13.889 12.4783V10.6698C13.889 10.3715 13.6449 10.1273 13.3465 10.1273H11.538C11.2396 10.1273 10.9955 10.3715 10.9955 10.6698V12.4783C10.9955 12.7767 11.2396 13.0208 11.538 13.0208H13.3465C13.6449 13.0208 13.889 12.7767 13.889 12.4783ZM18.2293 12.4783V10.6698C18.2293 10.3715 17.9852 10.1273 17.6868 10.1273H15.8783C15.5799 10.1273 15.3358 10.3715 15.3358 10.6698V12.4783C15.3358 12.7767 15.5799 13.0208 15.8783 13.0208H17.6868C17.9852 13.0208 18.2293 12.7767 18.2293 12.4783ZM13.889 16.8186V15.0101C13.889 14.7117 13.6449 14.4676 13.3465 14.4676H11.538C11.2396 14.4676 10.9955 14.7117 10.9955 15.0101V16.8186C10.9955 17.117 11.2396 17.3611 11.538 17.3611H13.3465C13.6449 17.3611 13.889 17.117 13.889 16.8186ZM9.54874 16.8186V15.0101C9.54874 14.7117 9.3046 14.4676 9.0062 14.4676H7.19775C6.89936 14.4676 6.65522 14.7117 6.65522 15.0101V16.8186C6.65522 17.117 6.89936 17.3611 7.19775 17.3611H9.0062C9.3046 17.3611 9.54874 17.117 9.54874 16.8186ZM18.2293 16.8186V15.0101C18.2293 14.7117 17.9852 14.4676 17.6868 14.4676H15.8783C15.5799 14.4676 15.3358 14.7117 15.3358 15.0101V16.8186C15.3358 17.117 15.5799 17.3611 15.8783 17.3611H17.6868C17.9852 17.3611 18.2293 17.117 18.2293 16.8186ZM22.5696 5.06366V20.978C22.5696 22.1761 21.5975 23.1481 20.3994 23.1481H4.48508C3.28698 23.1481 2.31494 22.1761 2.31494 20.978V5.06366C2.31494 3.86556 3.28698 2.89352 4.48508 2.89352H6.65522V0.542535C6.65522 0.244141 6.89936 0 7.19775 0H9.0062C9.3046 0 9.54874 0.244141 9.54874 0.542535V2.89352H15.3358V0.542535C15.3358 0.244141 15.5799 0 15.8783 0H17.6868C17.9852 0 18.2293 0.244141 18.2293 0.542535V2.89352H20.3994C21.5975 2.89352 22.5696 3.86556 22.5696 5.06366ZM20.3994 20.7067V7.2338H4.48508V20.7067C4.48508 20.8559 4.60715 20.978 4.75635 20.978H20.1282C20.2774 20.978 20.3994 20.8559 20.3994 20.7067Z" fill="#8C8C8C"/>
</svg>
