<svg width="108" height="108" viewBox="0 0 108 108" fill="none" xmlns="http://www.w3.org/2000/svg">
<path d="M38.9062 56.25H31.0938C29.8047 56.25 28.75 55.1953 28.75 53.9062V46.0938C28.75 44.8047 29.8047 43.75 31.0938 43.75H38.9062C40.1953 43.75 41.25 44.8047 41.25 46.0938V53.9062C41.25 55.1953 40.1953 56.25 38.9062 56.25ZM60 53.9062V46.0938C60 44.8047 58.9453 43.75 57.6562 43.75H49.8438C48.5547 43.75 47.5 44.8047 47.5 46.0938V53.9062C47.5 55.1953 48.5547 56.25 49.8438 56.25H57.6562C58.9453 56.25 60 55.1953 60 53.9062ZM78.75 53.9062V46.0938C78.75 44.8047 77.6953 43.75 76.4062 43.75H68.5938C67.3047 43.75 66.25 44.8047 66.25 46.0938V53.9062C66.25 55.1953 67.3047 56.25 68.5938 56.25H76.4062C77.6953 56.25 78.75 55.1953 78.75 53.9062ZM60 72.6562V64.8438C60 63.5547 58.9453 62.5 57.6562 62.5H49.8438C48.5547 62.5 47.5 63.5547 47.5 64.8438V72.6562C47.5 73.9453 48.5547 75 49.8438 75H57.6562C58.9453 75 60 73.9453 60 72.6562ZM41.25 72.6562V64.8438C41.25 63.5547 40.1953 62.5 38.9062 62.5H31.0938C29.8047 62.5 28.75 63.5547 28.75 64.8438V72.6562C28.75 73.9453 29.8047 75 31.0938 75H38.9062C40.1953 75 41.25 73.9453 41.25 72.6562ZM78.75 72.6562V64.8438C78.75 63.5547 77.6953 62.5 76.4062 62.5H68.5938C67.3047 62.5 66.25 63.5547 66.25 64.8438V72.6562C66.25 73.9453 67.3047 75 68.5938 75H76.4062C77.6953 75 78.75 73.9453 78.75 72.6562ZM97.5 21.875V90.625C97.5 95.8008 93.3008 100 88.125 100H19.375C14.1992 100 10 95.8008 10 90.625V21.875C10 16.6992 14.1992 12.5 19.375 12.5H28.75V2.34375C28.75 1.05469 29.8047 0 31.0938 0H38.9062C40.1953 0 41.25 1.05469 41.25 2.34375V12.5H66.25V2.34375C66.25 1.05469 67.3047 0 68.5938 0H76.4062C77.6953 0 78.75 1.05469 78.75 2.34375V12.5H88.125C93.3008 12.5 97.5 16.6992 97.5 21.875ZM88.125 89.4531V31.25H19.375V89.4531C19.375 90.0977 19.9023 90.625 20.5469 90.625H86.9531C87.5977 90.625 88.125 90.0977 88.125 89.4531Z" fill="#2196F3"/>
</svg>
