<svg width="24" height="24" viewBox="0 0 24 24" fill="none" xmlns="http://www.w3.org/2000/svg">
<path d="M21.1875 1.875H20.0625V0H18.1875V1.875H5.8125V0H3.9375V1.875H2.8125C1.2616 1.875 0 3.1366 0 4.6875V21.1875C0 22.7384 1.2616 24 2.8125 24H21.1875C22.7384 24 24 22.7384 24 21.1875V4.6875C24 3.1366 22.7384 1.875 21.1875 1.875ZM2.8125 3.75H3.9375V5.625H5.8125V3.75H18.1875V5.625H20.0625V3.75H21.1875C21.7044 3.75 22.125 4.17059 22.125 4.6875V6.9375H1.875V4.6875C1.875 4.17059 2.29559 3.75 2.8125 3.75ZM21.1875 22.125H2.8125C2.29559 22.125 1.875 21.7044 1.875 21.1875V8.8125H22.125V21.1875C22.125 21.7044 21.7044 22.125 21.1875 22.125ZM14.8125 20.1562H20.4375V14.5312H14.8125V20.1562ZM16.6875 16.4062H18.5625V18.2812H16.6875V16.4062Z" fill="#8C8C8C"/>
</svg>
