<svg width="24" height="24" viewBox="0 0 24 24" fill="none" xmlns="http://www.w3.org/2000/svg">
<path d="M14.6923 3.37652L3.41382 14.6257L9.37314 20.5696L20.6516 9.32036L14.6923 3.37652Z" fill="#8C8C8C"/>
<path d="M23.6721 4.78296L19.2709 0.3309C18.8339 -0.104967 18.1472 -0.104967 17.7414 0.299766C17.7414 0.299766 17.7414 0.299766 17.7102 0.3309L15.7749 2.26116L21.7369 8.23876L23.6721 6.3085C24.1091 5.87263 24.1091 5.1877 23.6721 4.78296Z" fill="#8C8C8C"/>
<path d="M2.5401 15.9287L0.0741646 22.529C-0.144336 23.0894 0.136593 23.712 0.698453 23.93C0.948168 24.0234 1.2291 24.0234 1.47881 23.93L8.09627 21.4393L2.5401 15.9287Z" fill="#8C8C8C"/>
</svg>
