<svg width="38" height="25" viewBox="0 0 38 25" fill="none" xmlns="http://www.w3.org/2000/svg">
<path d="M3.5996 6.83009e-07L28.2532 6.83009e-07C28.9455 -0.00033487 29.6042 0.345643 30.0603 0.948671L37.4097 10.6709C38.1968 11.7203 38.1968 13.2797 37.4097 14.3291L30.0603 24.0513C29.6042 24.6544 28.9455 25.0003 28.2532 25L3.5996 25C1.61165 25 1.38243e-10 23.1345 1.38243e-10 20.8332V4.16684C1.38243e-10 1.86546 1.61165 6.83009e-07 3.5996 6.83009e-07V6.83009e-07ZM28.2532 22.2221L35.6026 12.5002L28.2532 2.77789L3.5996 2.77789C2.93685 2.77789 2.39964 3.39971 2.39964 4.16684V20.8332C2.39964 21.6003 2.93685 22.2221 3.5996 22.2221L28.2532 22.2221Z" fill="#8C8C8C"/>
</svg>
