<svg width="50" height="20" viewBox="0 0 50 20" fill="none" xmlns="http://www.w3.org/2000/svg">
<path d="M0.289651 10.6749L11.4005 19.7904C11.7092 20.0161 12.0467 20.0595 12.4132 19.9206C12.7794 19.7815 12.9633 19.5299 12.9633 19.1651V13.3313L49.0741 13.3313C49.3443 13.3313 49.5662 13.2533 49.7396 13.097C49.9129 12.9408 50 12.7411 50 12.4981V7.49775C50 7.25484 49.9133 7.05507 49.7397 6.89908C49.5659 6.74291 49.344 6.66492 49.0742 6.66492L12.9631 6.66492V0.831139C12.9631 0.48341 12.7789 0.231827 12.4129 0.0760234C12.0461 -0.0634516 11.7086 -0.0107258 11.3999 0.231828L0.289041 9.45205C0.0961787 9.62555 1.72987e-06 9.83353 1.72987e-06 10.0768C1.72987e-06 10.3019 0.096788 10.5013 0.289651 10.6749Z" fill="white"/>
</svg>
