<svg width="108" height="88" viewBox="0 0 108 88" fill="none" xmlns="http://www.w3.org/2000/svg">
<path d="M87.615 14.6438L79.5825 3.73542C77.8048 1.34251 75.403 -2.65512e-05 72.9 3.9383e-10H34.6275C32.13 3.9383e-10 29.7169 1.35208 27.945 3.73542L19.9125 14.6438H0V73.2417H10.8C13.77 73.2417 16.1663 69.9875 16.1831 65.9771H17.7188L31.995 83.4854C37.2094 89.2375 44.4488 89.375 49.815 84.3563C51.9244 86.8313 54.2025 88 56.7506 88C59.8219 88 62.7075 86.3042 64.9856 82.5C68.715 84.4938 73.1194 83.0958 75.7856 78.65L80.2069 71.2479C81.1519 69.6667 81.7425 67.8562 82.0463 65.9771H91.8169C91.8337 69.9875 94.2469 73.2417 97.2 73.2417H108V14.6438H87.615ZM8.1 65.9083C6.615 65.9083 5.4 64.2583 5.4 62.2417C5.4 60.225 6.615 58.575 8.1 58.575C9.585 58.575 10.8 60.225 10.8 62.2417C10.8 64.2812 9.585 65.9083 8.1 65.9083ZM73.9125 64.3271L69.5081 71.7063C69.0356 72.4854 68.1919 72.6229 67.6012 71.9813L63.5681 67.5354L58.5056 75.9C57.4931 77.5729 55.9744 77 55.4681 76.45L49.2581 69.2313L46.6256 73.6312C44.28 77.55 40.0106 78.1458 37.2938 75.1438L20.8744 54.9771H16.2V25.6208H23.2706L33.6825 11.5042C34.02 11.3208 34.3069 11.1604 34.6444 10.9771H44.2125L37.6819 19.1125C32.7206 25.2771 32.4338 35.6813 36.9394 42.3271C39.4369 46.0396 47.2669 51.7688 54.0675 43.3354L55.4513 41.6167L73.71 61.7375C74.2838 62.3792 74.3681 63.5479 73.9125 64.3271ZM91.8 54.9771H80.1225C79.7344 54.3354 79.2956 53.7396 78.8231 53.2125L61.4925 34.1L63.6019 31.4875C64.6988 30.1125 64.7831 27.7979 63.7706 26.3083L61.9313 23.6271C60.9188 22.1375 59.2144 22.0458 58.1175 23.3979L48.8025 34.9938C47.1994 36.9875 44.4656 37.1479 42.9638 34.9938C41.3944 32.725 41.5294 29.2417 43.1663 27.225L54.2363 13.4521C55.485 11.8937 57.105 11.0458 58.7925 11.0458L72.9169 11C73.2713 11 73.6087 11.1833 73.845 11.5271L84.2569 25.6437H91.8V54.9771ZM99.9 65.9083C98.415 65.9083 97.2 64.2583 97.2 62.2417C97.2 60.225 98.415 58.575 99.9 58.575C101.385 58.575 102.6 60.225 102.6 62.2417C102.6 64.2812 101.385 65.9083 99.9 65.9083Z" fill="#2196F3"/>
</svg>
