<svg width="24" height="24" viewBox="0 0 24 24" fill="none" xmlns="http://www.w3.org/2000/svg">
<path d="M12 0C5.3828 0 0 5.3828 0 12C0 18.6172 5.3828 24 12 24C18.6172 24 24 18.6163 24 12C24 5.38373 18.6172 0 12 0ZM12 22.141C6.40898 22.141 1.85902 17.592 1.85902 12C1.85902 6.40805 6.40898 1.85902 12 1.85902C17.592 1.85902 22.141 6.40805 22.141 12C22.141 17.592 17.591 22.141 12 22.141Z" fill="#8C8C8C"/>
<path d="M17.5057 7.82644C17.1274 7.48251 16.539 7.50947 16.1933 7.88962L10.5232 14.1332L7.78393 11.3484C7.42234 10.9822 6.8349 10.9766 6.46961 11.3372C6.10337 11.697 6.09779 12.2853 6.45845 12.6516L9.88741 16.1372C10.0631 16.3157 10.301 16.4152 10.5501 16.4152C10.5557 16.4152 10.5622 16.4152 10.5678 16.4161C10.8243 16.4105 11.066 16.3008 11.238 16.1112L17.5689 9.13987C17.9138 8.75873 17.8859 8.1713 17.5057 7.82644Z" fill="#8C8C8C"/>
</svg>
