<svg width="24" height="24" viewBox="0 0 24 24" fill="none" xmlns="http://www.w3.org/2000/svg">
<path d="M0 12C0 18.6161 5.38389 24 12 24C18.6161 24 24 18.6161 24 12C24 5.38389 18.6161 0 12 0C5.38389 0 0 5.38389 0 12ZM10.2857 7.77143C10.2857 6.82389 11.0525 6.05714 12 6.05714C12.9475 6.05714 13.7143 6.82389 13.7143 7.77143V11.2C13.7143 12.1475 12.9475 12.9143 12 12.9143C11.0525 12.9143 10.2857 12.1475 10.2857 11.2V7.77143ZM12 14.6286C12.9467 14.6286 13.7143 15.3959 13.7143 16.3429C13.7143 17.2896 12.9467 18.0571 12 18.0571C11.0533 18.0571 10.2857 17.2896 10.2857 16.3429C10.2857 15.3959 11.0533 14.6286 12 14.6286Z" fill="#F44336"/>
</svg>
