<svg width="24" height="24" viewBox="0 0 24 24" fill="none" xmlns="http://www.w3.org/2000/svg">
<g clip-path="url(#clip0)">
<path d="M21.1792 7.06628V10.0606L23.0808 8.64797L21.1792 7.06628Z" fill="white"/>
<path d="M13.156 0.419521C12.4859 -0.135881 11.514 -0.141918 10.8438 0.413484L10.0771 1.06548H13.9348L13.156 0.419521Z" fill="white"/>
<path d="M13.802 17.0514C13.2828 17.4378 12.6549 17.6491 12.009 17.6431C11.363 17.6431 10.7291 17.4378 10.21 17.0514L0.593051 9.87347V22.1829C0.587014 23.179 1.38993 23.994 2.38603 24H21.6138C22.6099 23.994 23.4128 23.179 23.4068 22.1829V9.87347L13.802 17.0514Z" fill="white"/>
<path d="M0.925049 8.64796L2.76633 10.0184V7.12061L0.925049 8.64796Z" fill="white"/>
<path d="M3.97388 2.27289V10.9178L10.9164 16.0855C11.5624 16.5564 12.4498 16.5564 13.0957 16.0855L19.9719 10.9601V2.27289H3.97388ZM8.26013 7.10247H11.5201C11.8521 7.10247 12.1238 7.37413 12.1238 7.70617C12.1238 8.0382 11.8521 8.30986 11.5201 8.30986H8.26013C7.9281 8.30986 7.65643 8.0382 7.65643 7.70617C7.65643 7.37413 7.9281 7.10247 8.26013 7.10247ZM15.746 11.3284H8.26013C7.9281 11.3284 7.65643 11.0567 7.65643 10.7247C7.65643 10.3926 7.9281 10.121 8.26013 10.121H15.746C16.078 10.121 16.3497 10.3926 16.3497 10.7247C16.3497 11.0567 16.078 11.3284 15.746 11.3284Z" fill="white"/>
</g>
<defs>
<clipPath id="clip0">
<rect width="24" height="24" fill="white"/>
</clipPath>
</defs>
</svg>
