<svg width="24" height="24" viewBox="0 0 24 24" fill="none" xmlns="http://www.w3.org/2000/svg">
<path d="M16.005 1.81873H14.249C14.0299 1.81195 13.8416 1.66129 13.7869 1.44906C13.6205 0.584548 12.8491 -0.0299482 11.9693 0.00112748C11.0841 -0.0143808 10.3165 0.61008 10.1517 1.4799C10.0947 1.68629 9.90347 1.82651 9.68953 1.81879H7.99512V4.89952H16.005V1.81873Z" fill="#8C8C8C"/>
<path d="M20.934 22.5827V4.93015C20.9359 4.23257 20.3718 3.66555 19.6743 3.66366C19.6423 3.6636 19.6103 3.66472 19.5784 3.66702H16.929V5.2382C16.929 5.48468 16.775 5.82356 16.5285 5.82356H7.44038C7.19389 5.82356 7.07071 5.48468 7.07071 5.2382V3.66708H4.42126C3.72557 3.61602 3.12015 4.13864 3.06915 4.83439C3.06679 4.86629 3.06567 4.89825 3.06579 4.93021V22.5828C3.04857 23.3482 3.65516 23.9827 4.42061 23.9999C4.42085 23.9999 4.42109 23.9999 4.42132 23.9999H19.5785C20.344 23.9831 20.9508 23.3489 20.934 22.5834C20.934 22.5832 20.934 22.5829 20.934 22.5827ZM9.50446 18.5162L7.10149 20.7651C7.02466 20.857 6.91303 20.9128 6.79345 20.9191C6.66472 20.9141 6.54307 20.8587 6.45456 20.7651L5.19149 19.4712C5.02361 19.2832 5.03735 18.9954 5.22227 18.8243C5.40194 18.6481 5.68953 18.6481 5.8692 18.8243L6.79339 19.8101L8.88831 17.8384C9.09835 17.6935 9.38617 17.7462 9.53111 17.9562C9.6494 18.1276 9.63843 18.3568 9.50446 18.5162ZM9.50446 13.587L7.10149 15.8359C7.02466 15.9279 6.91303 15.9836 6.79345 15.99C6.66472 15.9849 6.54307 15.9296 6.45456 15.8359L5.19149 14.542C5.02361 14.354 5.03735 14.0662 5.22227 13.8951C5.40194 13.719 5.68953 13.719 5.8692 13.8951L6.79339 14.8809L8.88831 12.9092C9.09835 12.7643 9.38617 12.817 9.53111 13.027C9.6494 13.1984 9.63843 13.4277 9.50446 13.587ZM9.50446 8.65782L7.10149 10.9068C7.02466 10.9987 6.91303 11.0545 6.79345 11.0608C6.66472 11.0557 6.54307 11.0004 6.45456 10.9068L5.19149 9.61285C5.02361 9.42486 5.03735 9.13704 5.22227 8.96592C5.40194 8.78978 5.68953 8.78978 5.8692 8.96592L6.79339 9.95173L8.88831 7.98005C9.09835 7.83511 9.38617 7.88782 9.53111 8.09786C9.6494 8.26922 9.63843 8.49849 9.50446 8.65782ZM18.4694 20.303H11.3837C11.1285 20.303 10.9216 20.0961 10.9216 19.8409C10.9216 19.5856 11.1285 19.3787 11.3837 19.3787H18.4693C18.7245 19.3787 18.9315 19.5856 18.9315 19.8409C18.9315 20.0961 18.7246 20.303 18.4694 20.303ZM18.4694 15.3738H11.3837C11.1285 15.3738 10.9216 15.1669 10.9216 14.9117C10.9216 14.6565 11.1285 14.4496 11.3837 14.4496H18.4693C18.7245 14.4496 18.9315 14.6565 18.9315 14.9117C18.9315 15.1669 18.7246 15.3738 18.4694 15.3738ZM18.4694 10.4446H11.3837C11.1285 10.4446 10.9216 10.2377 10.9216 9.98251C10.9216 9.7273 11.1285 9.52039 11.3837 9.52039H18.4693C18.7245 9.52039 18.9315 9.7273 18.9315 9.98251C18.9315 10.2378 18.7246 10.4446 18.4694 10.4446Z" fill="#8C8C8C"/>
</svg>
