<svg width="24" height="24" viewBox="0 0 24 24" fill="none" xmlns="http://www.w3.org/2000/svg">
<path d="M16.005 1.81873H14.249C14.0299 1.81195 13.8416 1.66129 13.7869 1.44906C13.6205 0.584548 12.8491 -0.0299482 11.9693 0.00112748C11.0841 -0.0143808 10.3165 0.61008 10.1517 1.4799C10.0947 1.68629 9.90347 1.82651 9.68953 1.81879H7.99512V4.89952H16.005V1.81873Z" fill="white"/>
<path d="M20.9342 22.5827V4.93015C20.9361 4.23257 20.3721 3.66555 19.6745 3.66366C19.6426 3.6636 19.6106 3.66472 19.5787 3.66702H16.9292V5.2382C16.9292 5.48468 16.7752 5.82356 16.5287 5.82356H7.44062C7.19414 5.82356 7.07096 5.48468 7.07096 5.2382V3.66708H4.42151C3.72581 3.61602 3.1204 4.13864 3.06939 4.83439C3.06703 4.86629 3.06591 4.89825 3.06603 4.93021V22.5828C3.04881 23.3482 3.65541 23.9827 4.42086 23.9999C4.42109 23.9999 4.42133 23.9999 4.42157 23.9999H19.5788C20.3442 23.9831 20.9511 23.3489 20.9343 22.5834C20.9342 22.5832 20.9342 22.5829 20.9342 22.5827ZM9.5047 18.5162L7.10174 20.7651C7.0249 20.857 6.91328 20.9128 6.79369 20.9191C6.66497 20.9141 6.54332 20.8587 6.45481 20.7651L5.19173 19.4712C5.02386 19.2832 5.03759 18.9954 5.22252 18.8243C5.40219 18.6481 5.68977 18.6481 5.86944 18.8243L6.79363 19.8101L8.88856 17.8384C9.0986 17.6935 9.38641 17.7462 9.53136 17.9562C9.64964 18.1276 9.63868 18.3568 9.5047 18.5162ZM9.5047 13.587L7.10174 15.8359C7.0249 15.9279 6.91328 15.9836 6.79369 15.99C6.66497 15.9849 6.54332 15.9296 6.45481 15.8359L5.19173 14.542C5.02386 14.354 5.03759 14.0662 5.22252 13.8951C5.40219 13.719 5.68977 13.719 5.86944 13.8951L6.79363 14.8809L8.88856 12.9092C9.0986 12.7643 9.38641 12.817 9.53136 13.027C9.64964 13.1984 9.63868 13.4277 9.5047 13.587ZM9.5047 8.65782L7.10174 10.9068C7.0249 10.9987 6.91328 11.0545 6.79369 11.0608C6.66497 11.0557 6.54332 11.0004 6.45481 10.9068L5.19173 9.61285C5.02386 9.42486 5.03759 9.13704 5.22252 8.96592C5.40219 8.78978 5.68977 8.78978 5.86944 8.96592L6.79363 9.95173L8.88856 7.98005C9.0986 7.83511 9.38641 7.88782 9.53136 8.09786C9.64964 8.26922 9.63868 8.49849 9.5047 8.65782ZM18.4696 20.303H11.3839C11.1287 20.303 10.9218 20.0961 10.9218 19.8409C10.9218 19.5856 11.1287 19.3787 11.3839 19.3787H18.4696C18.7248 19.3787 18.9317 19.5856 18.9317 19.8409C18.9317 20.0961 18.7248 20.303 18.4696 20.303ZM18.4696 15.3738H11.3839C11.1287 15.3738 10.9218 15.1669 10.9218 14.9117C10.9218 14.6565 11.1287 14.4496 11.3839 14.4496H18.4696C18.7248 14.4496 18.9317 14.6565 18.9317 14.9117C18.9317 15.1669 18.7248 15.3738 18.4696 15.3738ZM18.4696 10.4446H11.3839C11.1287 10.4446 10.9218 10.2377 10.9218 9.98251C10.9218 9.7273 11.1287 9.52039 11.3839 9.52039H18.4696C18.7248 9.52039 18.9317 9.7273 18.9317 9.98251C18.9317 10.2378 18.7248 10.4446 18.4696 10.4446Z" fill="white"/>
</svg>
