<svg width="81" height="97" viewBox="0 0 81 97" fill="none" xmlns="http://www.w3.org/2000/svg">
<path d="M59.3871 6.34347H51.3277C50.3221 6.31982 49.4579 5.79434 49.2068 5.05411C48.4431 2.03882 44.9026 -0.104455 40.8647 0.00393251C36.8019 -0.0501581 33.2789 2.12787 32.5225 5.16168C32.2609 5.88154 31.3832 6.3706 30.4013 6.34368H22.6245V17.0888H59.3871V6.34347Z" fill="#1890FF"/>
<path d="M80.998 90.6529V17.9915C81.0066 15.1201 78.45 12.7861 75.2878 12.7783C75.1432 12.7781 74.9981 12.7827 74.8535 12.7922H62.8433V19.2595C62.8433 20.274 62.1453 21.6689 61.0279 21.6689H19.8316C18.7143 21.6689 18.156 20.274 18.156 19.2595V12.7924H6.14601C2.9924 12.5822 0.248081 14.7335 0.0168527 17.5973C0.00615478 17.7286 0.00107767 17.8602 0.00162163 17.9917V90.6534C-0.0764366 93.8039 2.67328 96.4156 6.14306 96.4864C6.14411 96.4864 6.14519 96.4864 6.14628 96.4864H74.854C78.3235 96.4173 81.0746 93.8068 80.9985 90.6558C80.998 90.655 80.998 90.6538 80.998 90.6529ZM29.1881 73.9144L18.2955 83.1713C17.9472 83.5496 17.4412 83.7793 16.8991 83.8052C16.3156 83.7846 15.7642 83.5566 15.363 83.1713L9.63742 77.8454C8.87646 77.0715 8.9387 75.8869 9.77699 75.1826C10.5914 74.4573 11.895 74.4573 12.7095 75.1826L16.8988 79.2404L26.3951 71.1244C27.3473 70.528 28.6519 70.7449 29.309 71.6093C29.8451 72.3148 29.7954 73.2583 29.1881 73.9144ZM29.1881 53.6248L18.2955 62.8817C17.9472 63.2604 17.4412 63.4897 16.8991 63.5161C16.3156 63.4951 15.7642 63.2674 15.363 62.8817L9.63742 57.5558C8.87646 56.7819 8.9387 55.5973 9.77699 54.893C10.5914 54.1682 11.895 54.1682 12.7095 54.893L16.8988 58.9508L26.3951 50.8349C27.3473 50.2384 28.6519 50.4553 29.309 51.3197C29.8451 52.0253 29.7954 52.9691 29.1881 53.6248ZM29.1881 33.3353L18.2955 42.5926C17.9472 42.9709 17.4412 43.2005 16.8991 43.2265C16.3156 43.2055 15.7642 42.9778 15.363 42.5926L9.63742 37.2664C8.87646 36.4926 8.9387 35.3079 9.77699 34.6035C10.5914 33.8785 11.895 33.8785 12.7095 34.6035L16.8988 38.6613L26.3951 30.5455C27.3473 29.9489 28.6519 30.1658 29.309 31.0304C29.8451 31.7358 29.7954 32.6795 29.1881 33.3353ZM69.826 81.2692H37.7065C36.5497 81.2692 35.6118 80.4176 35.6118 79.3671C35.6118 78.3163 36.5497 77.4646 37.7065 77.4646H69.826C70.9828 77.4646 71.9207 78.3163 71.9207 79.3671C71.9207 80.4176 70.9828 81.2692 69.826 81.2692ZM69.826 60.9797H37.7065C36.5497 60.9797 35.6118 60.128 35.6118 59.0776C35.6118 58.0271 36.5497 57.1755 37.7065 57.1755H69.826C70.9828 57.1755 71.9207 58.0271 71.9207 59.0776C71.9207 60.128 70.9828 60.9797 69.826 60.9797ZM69.826 40.6901H37.7065C36.5497 40.6901 35.6118 39.8384 35.6118 38.788C35.6118 37.7375 36.5497 36.8858 37.7065 36.8858H69.826C70.9828 36.8858 71.9207 37.7375 71.9207 38.788C71.9207 39.8388 70.9828 40.6901 69.826 40.6901Z" fill="#1890FF"/>
</svg>
