<svg width="138" height="30" viewBox="0 0 138 30" fill="none" xmlns="http://www.w3.org/2000/svg">
<path d="M14.7499 0L19.0691 29.0158H11.3448L10.9684 23.8005H8.26209L7.8141 29.0158H0L3.83534 0H14.7499ZM10.7532 18.6568C10.3709 15.3711 9.98861 11.3148 9.60629 6.48778C8.84155 12.0317 8.36363 16.088 8.17252 18.6568H10.7532ZM27.6 0V29.0158H20.1444V0H27.6ZM39.4465 0V3.67395C37.9529 3.67395 37.0688 3.74566 36.794 3.88907C36.5311 4.02053 36.3998 4.40877 36.3998 5.054V5.80669H39.4465V9.57033H37.726V29.0158H30.4854V9.57033H28.9979V5.80669H30.4854C30.4854 4.24156 30.5392 3.19614 30.6468 2.67041C30.7543 2.14468 31.0172 1.67871 31.4353 1.27249C31.8655 0.854322 32.4629 0.537679 33.2275 0.322563C33.9922 0.107558 35.181 0 36.794 0H39.4465ZM47.2963 14.4452H40.5038V12.8501C40.5038 11.0101 40.7129 9.59423 41.1312 8.60253C41.5613 7.59898 42.4155 6.71473 43.6941 5.9501C44.9725 5.18546 46.6332 4.80315 48.6764 4.80315C51.1257 4.80315 52.9717 5.23919 54.2143 6.11138C55.4566 6.97162 56.2032 8.03503 56.4543 9.30149C56.7054 10.5561 56.8304 13.1488 56.8304 17.0797V29.0158H49.7875V26.901C49.3454 27.7493 48.772 28.3885 48.067 28.8187C47.3741 29.2368 46.5436 29.4459 45.5758 29.4459C44.3094 29.4459 43.1444 29.0934 42.081 28.3885C41.0296 27.6716 40.5038 26.1124 40.5038 23.7108V21.7573C40.5038 19.9771 40.7846 18.7644 41.3462 18.1191C41.9078 17.474 43.2997 16.7212 45.5221 15.861C47.8997 14.929 49.1722 14.3018 49.3395 13.9792C49.5068 13.6566 49.5903 12.9995 49.5903 12.0078C49.5903 10.7652 49.4948 9.95868 49.3036 9.58831C49.1244 9.20599 48.8197 9.01478 48.3895 9.01478C47.8997 9.01478 47.5951 9.17606 47.4756 9.49862C47.3561 9.80934 47.2963 10.6278 47.2963 11.954V14.4452ZM49.5903 17.707C48.4314 18.5553 47.7564 19.2662 47.5652 19.8397C47.386 20.4132 47.2963 21.2376 47.2963 22.3129C47.2963 23.5436 47.3741 24.3382 47.5293 24.6966C47.6966 25.055 48.0192 25.2343 48.4971 25.2343C48.9511 25.2343 49.2439 25.0968 49.3753 24.822C49.5186 24.5353 49.5903 23.7945 49.5903 22.5997V17.707ZM81.2232 0V5.80669H76.7422V29.0158H69.1967V5.80669H64.7344V0H81.2232ZM90.1842 0V3.78151H82.7286V0H90.1842ZM90.1842 5.23327V29.0158H82.7286V5.23327H90.1842ZM99.951 5.23327L99.826 7.49143C100.387 6.59534 101.056 5.9262 101.834 5.48412C102.61 5.0301 103.493 4.80315 104.486 4.80315C106.421 4.80315 107.945 5.69924 109.056 7.49143C109.665 6.59534 110.353 5.9262 111.117 5.48412C111.881 5.0301 112.73 4.80315 113.662 4.80315C114.893 4.80315 115.908 5.10181 116.709 5.69924C117.521 6.29656 118.041 7.03137 118.268 7.90357C118.495 8.76392 118.609 10.1678 118.609 12.1153V29.0158H111.583V13.5132C111.583 11.482 111.512 10.2275 111.368 9.74959C111.236 9.25972 110.919 9.01478 110.417 9.01478C109.904 9.01478 109.57 9.25368 109.414 9.73161C109.27 10.2095 109.199 11.4701 109.199 13.5132V29.0158H102.173V13.9075C102.173 11.5776 102.114 10.1797 101.995 9.71374C101.887 9.24776 101.576 9.01478 101.063 9.01478C100.74 9.01478 100.465 9.14021 100.238 9.39118C100.011 9.63008 99.8852 9.92886 99.8622 10.2873C99.8381 10.6337 99.826 11.3805 99.826 12.5275V29.0158H92.8002V5.23327H99.951ZM137.516 17.5457H128.143V22.6893C128.143 23.7647 128.221 24.4576 128.375 24.7683C128.531 25.0789 128.829 25.2343 129.272 25.2343C129.822 25.2343 130.186 25.0311 130.365 24.6249C130.556 24.2067 130.652 23.4062 130.652 22.2233V19.0869H137.516V20.8434C137.516 22.3129 137.421 23.442 137.229 24.2306C137.05 25.0192 136.62 25.8615 135.938 26.7576C135.258 27.6537 134.391 28.3288 133.34 28.7828C132.301 29.2249 130.993 29.4459 129.415 29.4459C127.885 29.4459 126.536 29.2249 125.365 28.7828C124.194 28.3407 123.28 27.7374 122.623 26.9726C121.978 26.196 121.529 25.3478 121.278 24.4278C121.027 23.4958 120.902 22.1457 120.902 20.3774V13.4415C120.902 11.3625 121.183 9.72569 121.744 8.53093C122.306 7.32412 123.226 6.40412 124.505 5.77083C125.783 5.12571 127.253 4.80315 128.914 4.80315C130.944 4.80315 132.617 5.19138 133.932 5.96808C135.258 6.73271 136.184 7.75424 136.709 9.03265C137.248 10.2992 137.516 12.0854 137.516 14.3913V17.5457ZM130.258 13.6745V11.936C130.258 10.7054 130.192 9.91087 130.061 9.55246C129.929 9.19404 129.66 9.01478 129.254 9.01478C128.753 9.01478 128.441 9.17014 128.322 9.48075C128.202 9.77941 128.143 10.5979 128.143 11.936V13.6745H130.258Z" fill="#1890FF"/>
</svg>
