<?xml version="1.0" encoding="UTF-8" standalone="no"?>
<svg
   xmlns="http://www.w3.org/2000/svg"
   xmlns:sodipodi="http://sodipodi.sourceforge.net/DTD/sodipodi-0.dtd"
   width="60"
   height="60"
   viewBox="100 40  130 159">
  <g>
    <path
       style="fill:#1890ff;stroke:#1890ff;stroke-width:0.264583px;stroke-linecap:butt;stroke-linejoin:miter;stroke-opacity:1;fill-opacity:1"
       d="m 108.42017,42.245238 22.1116,-0.0945 c 0,0 1.94977,7.479392 3.28236,11.100522 1.5842,4.304845 3.54545,8.468145 5.58295,12.577885 1.59115,3.20944 3.31578,6.35684 5.17837,9.41675 2.59846,4.26882 8.3514,12.45098 8.3514,12.45098 l -13.98511,21.450135 c 0,0 -9.21816,-11.165485 -13.08402,-17.264095 -3.17002,-5.00087 -5.85062,-10.31984 -8.22482,-15.74394 -2.41998,-5.52868 -4.53211,-11.21871 -6.1021,-17.04603 -1.48563,-5.514198 -3.11063,-16.847707 -3.11063,-16.847707 z"
       id="path5064"
       sodipodi:nodetypes="ccsssccsssc" />
    <path
       style="fill:#1890ff;stroke:#1890ff;stroke-width:0.264583px;stroke-linecap:butt;stroke-linejoin:miter;stroke-opacity:1;fill-opacity:1"
       d="m 108.38652,192.27587 23.24553,1.51191 c 0,0 5.07602,-24.56156 10.63775,-35.64304 2.40225,-4.78636 6.09529,-11.6771 10.41357,-17.26822 6.28541,-8.13812 13.95734,-14.3685 13.95734,-14.3685 l -0.0459,-47.813985 c 0,0 -2.2998,0.95299 -7.54313,7.78305 -3.81174,4.96523 -9.89198,14.684935 -14.30251,21.371885 -4.14751,6.28818 -8.00756,12.3002 -11.22157,18.47304 -2.46797,4.74 -4.47747,9.80748 -6.41525,13.75295 -8.03918,16.36834 -18.72587,52.20092 -18.72587,52.20092 z"
       id="path5083"
       sodipodi:nodetypes="ccssccssssc" />
    <path
       style="display:inline;fill:#1890ff;stroke:#1890ff;stroke-width:0.264583px;stroke-linecap:butt;stroke-linejoin:miter;stroke-opacity:1;fill-opacity:1"
       d="m 224.8949,192.27587 -23.24553,1.51191 c 0,0 -5.07602,-24.56156 -10.63775,-35.64304 -2.40225,-4.78636 -6.09529,-11.6771 -10.41357,-17.26822 -6.28541,-8.13812 -13.95734,-14.3685 -13.95734,-14.3685 l 0.039,-40.636475 0.007,-7.17751 c 0,0 2.2998,0.95299 7.54313,7.78305 3.81174,4.96523 9.89198,14.684935 14.30251,21.371885 4.14751,6.28818 8.00756,12.30019 11.22157,18.47303 2.46797,4.74 4.47747,9.80748 6.41525,13.75295 8.03918,16.36835 18.72587,52.20092 18.72587,52.20092 z"
       id="path5083-4"
       sodipodi:nodetypes="ccsscccsssscc" />
    <path
       style="display:inline;fill:#1890ff;stroke:#1890ff;stroke-width:0.264583px;stroke-linecap:butt;stroke-linejoin:miter;stroke-opacity:1;fill-opacity:1"
       d="m 224.56057,42.245228 -22.1116,-0.0945 c 0,0 -1.94977,7.479392 -3.28236,11.100522 -1.5842,4.304845 -3.54545,8.468145 -5.58295,12.577885 -1.59115,3.20944 -3.31578,6.356841 -5.17837,9.41675 -2.59846,4.26882 -8.3514,12.45098 -8.3514,12.45098 L 194.039,109.147 c 0,0 9.21816,-11.165484 13.08402,-17.264096 3.17002,-5.000868 5.85062,-10.31984 8.22482,-15.743939 2.41998,-5.52868 4.53211,-11.21871 6.1021,-17.04603 1.48563,-5.514198 3.11063,-16.847707 3.11063,-16.847707 z"
       id="path5064-7"
       sodipodi:nodetypes="ccsssccsssc" />
  </g>
</svg>
