<svg width="26" height="27" viewBox="0 0 26 27" fill="none" xmlns="http://www.w3.org/2000/svg">
<path d="M24.8691 6.80867L22.5857 7.71288C22.7722 7.17247 22.869 6.60119 22.869 6.01441C22.869 3.14957 20.5419 0.818848 17.6816 0.818848C14.8212 0.818848 12.4942 3.14957 12.4942 6.01441C12.4942 6.74271 12.6428 7.4475 12.9282 8.09841C11.4762 7.61371 9.38 6.91362 9.0182 6.79328C8.83031 6.73212 8.67636 6.75023 8.50097 6.81481C8.50073 6.8149 8.50053 6.815 8.50028 6.8151L1.05532 9.77802C0.773161 9.89035 0.587891 10.1637 0.587891 10.4678V25.4113C0.587891 25.9387 1.12004 26.2931 1.60258 26.1011L8.81119 23.2322L17.4473 26.1154C17.4489 26.116 17.4505 26.1163 17.4521 26.1168C17.6394 26.1779 17.7938 26.1601 17.9696 26.0954C17.9698 26.0953 17.97 26.0952 17.9703 26.0951L25.4153 23.1322C25.6975 23.0198 25.8827 22.7465 25.8827 22.4424V7.49886C25.8826 6.97592 25.3554 6.61608 24.8691 6.80867ZM8.04788 21.9386L2.07001 24.3177V10.9715L8.04788 8.59245V21.9386ZM16.9406 24.3815L9.52999 21.9074V8.52866L14.2631 10.1089L16.9406 13.6841V24.3815ZM17.6816 12.1997L14.7152 8.23859C14.2318 7.59323 13.9763 6.82416 13.9763 6.01446C13.9763 3.96812 15.6384 2.30335 17.6816 2.30335C19.7247 2.30335 21.3868 3.96817 21.3868 6.01446C21.3868 6.82411 21.1313 7.59323 20.6479 8.23864L17.6816 12.1997ZM24.4006 21.9386L18.4227 24.3176V13.6841L21.3251 9.8084L24.4006 8.59052V21.9386Z" fill="#8C8C8C"/>
<path d="M17.6816 3.78772C16.4558 3.78772 15.4585 4.78659 15.4585 6.01438C15.4585 7.24216 16.4557 8.24103 17.6816 8.24103C18.9075 8.24103 19.9048 7.24216 19.9048 6.01438C19.9048 4.78659 18.9075 3.78772 17.6816 3.78772ZM17.6816 6.75663C17.273 6.75663 16.9406 6.42365 16.9406 6.01443C16.9406 5.60515 17.273 5.27217 17.6816 5.27217C18.0903 5.27217 18.4227 5.60515 18.4227 6.01443C18.4227 6.42365 18.0903 6.75663 17.6816 6.75663Z" fill="#8C8C8C"/>
</svg>
