<svg width="47" height="46" viewBox="0 0 47 46" fill="none" xmlns="http://www.w3.org/2000/svg">
<path d="M23.5 0C10.5416 0 0 10.3173 0 23C0 35.6827 10.5416 46 23.5 46C36.4584 46 47 35.6827 47 23C47 10.3173 36.4584 0 23.5 0Z" fill="#1890FF"/>
<path d="M33.7812 24.9165H25.4582V33.0625C25.4582 34.1206 24.5811 34.979 23.5 34.979C22.4188 34.979 21.5417 34.1206 21.5417 33.0625V24.9165H13.2187C12.1376 24.9165 11.2605 24.0581 11.2605 23C11.2605 21.9419 12.1376 21.0834 13.2187 21.0834H21.5417V12.9375C21.5417 11.8794 22.4188 11.0209 23.5 11.0209C24.5811 11.0209 25.4582 11.8794 25.4582 12.9375V21.0834H33.7812C34.8623 21.0834 35.7394 21.9419 35.7394 23C35.7394 24.0581 34.8623 24.9165 33.7812 24.9165Z" fill="#FAFAFA"/>
</svg>
