<svg width="30" height="30" viewBox="0 0 30 30" fill="none" xmlns="http://www.w3.org/2000/svg">
<path d="M28.75 16.7311H1.25C0.559998 16.7311 0 15.9557 0 15.0003C0 14.0449 0.559998 13.2695 1.25 13.2695H28.75C29.44 13.2695 30 14.0449 30 15.0003C30 15.9557 29.44 16.7311 28.75 16.7311Z" fill="white"/>
<path d="M28.75 3.46155H1.25C0.559998 3.46155 0 2.68617 0 1.73078C0 0.775385 0.559998 0 1.25 0H28.75C29.44 0 30 0.775385 30 1.73078C30 2.68617 29.44 3.46155 28.75 3.46155Z" fill="white"/>
<path d="M28.75 30.0001H1.25C0.559998 30.0001 0 29.2247 0 28.2694C0 27.314 0.559998 26.5386 1.25 26.5386H28.75C29.44 26.5386 30 27.314 30 28.2694C30 29.2247 29.44 30.0001 28.75 30.0001Z" fill="white"/>
</svg>
