<svg width="43" height="39" viewBox="0 0 43 39" fill="none" xmlns="http://www.w3.org/2000/svg">
<path d="M38.2344 4.875H29.4688V3.65625C29.4688 1.63693 27.3281 0 24.6875 0H18.3125C15.6719 0 13.5312 1.63693 13.5312 3.65625V4.875H4.76562C2.56515 4.875 0.78125 6.23916 0.78125 7.92188V10.3594C0.78125 11.0325 1.49475 11.5781 2.375 11.5781H40.625C41.5052 11.5781 42.2188 11.0325 42.2188 10.3594V7.92188C42.2188 6.23916 40.4348 4.875 38.2344 4.875ZM16.7188 3.65625C16.7188 2.98441 17.4339 2.4375 18.3125 2.4375H24.6875C25.5661 2.4375 26.2812 2.98441 26.2812 3.65625V4.875H16.7188V3.65625Z" fill="#8C8C8C"/>
<path d="M3.80564 14.0156C3.52126 14.0156 3.29465 14.1974 3.30819 14.4146L4.62304 35.5174C4.74456 37.4705 6.84233 39 9.39831 39H33.6014C36.1574 39 38.2551 37.4705 38.3767 35.5174L39.6915 14.4146C39.7051 14.1974 39.4784 14.0156 39.1941 14.0156H3.80564ZM27.8748 17.0625C27.8748 16.3891 28.5881 15.8438 29.4686 15.8438C30.3491 15.8438 31.0624 16.3891 31.0624 17.0625V32.9062C31.0624 33.5796 30.3491 34.125 29.4686 34.125C28.5881 34.125 27.8748 33.5796 27.8748 32.9062V17.0625ZM19.9061 17.0625C19.9061 16.3891 20.6193 15.8438 21.4999 15.8438C22.3804 15.8438 23.0936 16.3891 23.0936 17.0625V32.9062C23.0936 33.5796 22.3804 34.125 21.4999 34.125C20.6193 34.125 19.9061 33.5796 19.9061 32.9062V17.0625ZM11.9374 17.0625C11.9374 16.3891 12.6506 15.8438 13.5311 15.8438C14.4116 15.8438 15.1249 16.3891 15.1249 17.0625V32.9062C15.1249 33.5796 14.4116 34.125 13.5311 34.125C12.6506 34.125 11.9374 33.5796 11.9374 32.9062V17.0625Z" fill="#8C8C8C"/>
</svg>
