<svg width="31" height="32" viewBox="0 0 31 32" fill="none" xmlns="http://www.w3.org/2000/svg">
<path d="M26.0624 17.2393H23.7114C23.9511 18.0129 24.082 18.8476 24.082 19.7177V30.1933C24.082 30.556 24.0284 30.9042 23.931 31.228H27.8176C29.2694 31.228 30.4506 29.8354 30.4506 28.1238V22.413C30.4506 19.5603 28.482 17.2393 26.0624 17.2393Z" fill="#1890FF"/>
<path d="M6.41991 19.7177C6.41991 18.8476 6.55083 18.013 6.79046 17.2394H4.43953C2.01984 17.2394 0.0512695 19.5604 0.0512695 22.4132V28.1239C0.0512695 29.8356 1.23238 31.2282 2.68422 31.2282H6.5709C6.47347 30.9042 6.41991 30.5561 6.41991 30.1934V19.7177Z" fill="#1890FF"/>
<path d="M17.9376 14.5439H12.5631C10.1434 14.5439 8.1748 16.8649 8.1748 19.7177V30.1933C8.1748 30.7647 8.56773 31.2281 9.05246 31.2281H21.4482C21.9329 31.2281 22.3259 30.7648 22.3259 30.1933V19.7177C22.3259 16.8649 20.3573 14.5439 17.9376 14.5439Z" fill="#1890FF"/>
<path d="M15.2511 0.8255C12.3411 0.8255 9.97363 3.61671 9.97363 7.04767C9.97363 9.37485 11.0631 11.4073 12.672 12.4744C13.4351 12.9805 14.3149 13.2698 15.2511 13.2698C16.1872 13.2698 17.067 12.9805 17.8302 12.4744C19.4391 11.4073 20.5285 9.37478 20.5285 7.04767C20.5285 3.61678 18.161 0.8255 15.2511 0.8255Z" fill="#1890FF"/>
<path d="M5.98295 6.62491C3.80663 6.62491 2.03613 8.71233 2.03613 11.2782C2.03613 13.8441 3.80663 15.9315 5.98295 15.9315C6.535 15.9315 7.06069 15.7967 7.53823 15.5544C8.36387 15.1353 9.04464 14.3934 9.46589 13.4641C9.76156 12.8119 9.92977 12.0679 9.92977 11.2782C9.92977 8.7124 8.15927 6.62491 5.98295 6.62491Z" fill="#1890FF"/>
<path d="M24.5176 6.62491C22.3413 6.62491 20.5708 8.71233 20.5708 11.2782C20.5708 12.068 20.739 12.812 21.0347 13.4641C21.4559 14.3935 22.1367 15.1353 22.9623 15.5544C23.4399 15.7967 23.9656 15.9315 24.5176 15.9315C26.6939 15.9315 28.4644 13.8441 28.4644 11.2782C28.4644 8.71233 26.6939 6.62491 24.5176 6.62491Z" fill="#1890FF"/>
</svg>
