<svg width="24" height="24" viewBox="0 0 24 24" fill="none" xmlns="http://www.w3.org/2000/svg">
<path d="M20.5355 12.8119H18.6794C18.8686 13.3299 18.972 13.8888 18.972 14.4715V21.4863C18.972 21.7292 18.9297 21.9624 18.8528 22.1792H21.9213C23.0675 22.1792 24 21.2467 24 20.1005V16.2764C24 14.3661 22.4459 12.8119 20.5355 12.8119Z" fill="white"/>
<path d="M5.02806 14.4716C5.02806 13.8889 5.13142 13.33 5.3206 12.812H3.46454C1.55419 12.812 0 14.3662 0 16.2765V20.1007C0 21.2469 0.932486 22.1794 2.07872 22.1794H5.14726C5.07034 21.9624 5.02806 21.7293 5.02806 21.4864V14.4716Z" fill="white"/>
<path d="M14.1216 11.007H9.87836C7.96801 11.007 6.41382 12.5612 6.41382 14.4716V21.4864C6.41382 21.8691 6.72404 22.1793 7.10673 22.1793H16.8932C17.2759 22.1793 17.5861 21.8691 17.5861 21.4864V14.4716C17.5861 12.5612 16.0319 11.007 14.1216 11.007Z" fill="white"/>
<path d="M12 1.82062C9.70259 1.82062 7.8335 3.68971 7.8335 5.9872C7.8335 7.54557 8.69361 8.90659 9.96383 9.62115C10.5663 9.96006 11.2609 10.1537 12 10.1537C12.7392 10.1537 13.4338 9.96006 14.0362 9.62115C15.3065 8.90659 16.1666 7.54552 16.1666 5.9872C16.1666 3.68976 14.2975 1.82062 12 1.82062Z" fill="white"/>
<path d="M4.68365 5.70416C2.96544 5.70416 1.56763 7.10198 1.56763 8.82018C1.56763 10.5384 2.96544 11.9362 4.68365 11.9362C5.11949 11.9362 5.53452 11.8459 5.91154 11.6836C6.56339 11.403 7.10085 10.9062 7.43343 10.284C7.66687 9.84722 7.79967 9.34898 7.79967 8.82018C7.79967 7.10202 6.40185 5.70416 4.68365 5.70416Z" fill="white"/>
<path d="M19.3165 5.70416C17.5983 5.70416 16.2004 7.10198 16.2004 8.82018C16.2004 9.34903 16.3332 9.84726 16.5667 10.284C16.8993 10.9063 17.4367 11.403 18.0886 11.6836C18.4656 11.8459 18.8806 11.9362 19.3165 11.9362C21.0347 11.9362 22.4325 10.5384 22.4325 8.82018C22.4325 7.10198 21.0347 5.70416 19.3165 5.70416Z" fill="white"/>
</svg>
