<svg width="24" height="24" viewBox="0 0 24 24" fill="none" xmlns="http://www.w3.org/2000/svg">
<path d="M12.2061 4.80005C8.12225 4.80005 4.7998 8.1225 4.7998 12.2063C4.7998 16.2901 8.12225 19.6126 12.2061 19.6126C16.2899 19.6126 19.6123 16.2901 19.6123 12.2063C19.6123 8.1225 16.2899 4.80005 12.2061 4.80005ZM12.9092 12.9094H8.12793V11.5032H11.5029V6.03436H12.9092V12.9094Z" fill="#8C8C8C"/>
<path d="M20.4853 3.51471C18.2188 1.24823 15.2053 0 12 0C8.79474 0 5.78119 1.24823 3.51471 3.51471C1.24823 5.78119 0 8.79474 0 12C0 15.2053 1.24823 18.2188 3.51471 20.4853C5.78119 22.7518 8.79474 24 12 24C15.2053 24 18.2188 22.7518 20.4853 20.4853C22.7518 18.2188 24 15.2053 24 12C24 8.79474 22.7518 5.78119 20.4853 3.51471ZM12 20.8125C7.14075 20.8125 3.1875 16.8593 3.1875 12C3.1875 7.14075 7.14075 3.1875 12 3.1875C16.8593 3.1875 20.8125 7.14075 20.8125 12C20.8125 16.8593 16.8593 20.8125 12 20.8125Z" fill="#8C8C8C"/>
</svg>
