<svg width="31" height="31" viewBox="0 0 31 31" fill="none" xmlns="http://www.w3.org/2000/svg">
<path d="M15.3283 6.20807C10.217 6.20807 6.05859 10.4169 6.05859 15.5901C6.05859 20.7634 10.217 24.9722 15.3283 24.9722C20.4396 24.9722 24.598 20.7634 24.598 15.5901C24.598 10.4169 20.4396 6.20807 15.3283 6.20807ZM16.2083 16.4809H10.2241V14.6994H14.4482V7.77167H16.2083V16.4809Z" fill="#1890FF"/>
<path d="M25.6907 4.57986C22.854 1.70873 19.0822 0.127502 15.0705 0.127502C11.0588 0.127502 7.28702 1.70873 4.45029 4.57986C1.61356 7.45099 0.0512695 11.2685 0.0512695 15.3288C0.0512695 19.3892 1.61356 23.2067 4.45029 26.0778C7.28702 28.949 11.0588 30.5302 15.0705 30.5302C19.0822 30.5302 22.854 28.949 25.6907 26.0778C28.5274 23.2067 30.0897 19.3892 30.0897 15.3288C30.0897 11.2685 28.5274 7.45099 25.6907 4.57986ZM15.0705 26.4923C8.98865 26.4923 4.04075 21.4844 4.04075 15.3288C4.04075 9.17325 8.98865 4.16536 15.0705 4.16536C21.1524 4.16536 26.1002 9.17325 26.1002 15.3288C26.1002 21.4844 21.1524 26.4923 15.0705 26.4923Z" fill="#1890FF"/>
</svg>
