<svg width="31" height="47" viewBox="0 0 31 47" fill="none" xmlns="http://www.w3.org/2000/svg">
<path d="M15.2278 27.352C19.7335 27.352 23.4 23.1559 23.4 17.9996C23.4 12.8433 19.7335 8.64722 15.2278 8.64722C10.7222 8.64722 7.05566 12.8433 7.05566 17.9996C7.05566 23.1559 10.7222 27.352 15.2278 27.352ZM11.3835 17.055L14.0604 20.1185L19.0722 14.3829L20.7231 16.2721L14.0604 23.897L9.7326 18.9442L11.3835 17.055Z" fill="#1890FF"/>
<path d="M15.2282 46.2349L27.3621 28.4323L27.3758 28.4128C29.3574 25.391 30.4051 21.7899 30.4051 17.9996C30.4051 8.42278 23.5964 0.630859 15.2282 0.630859C6.8599 0.630859 0.0512695 8.42278 0.0512695 17.9996C0.0512695 21.7899 1.09894 25.391 3.09425 28.4323L15.2282 46.2349ZM15.2282 5.97508C21.022 5.97508 25.7353 11.3691 25.7353 17.9996C25.7353 24.6301 21.022 30.0241 15.2282 30.0241C9.43438 30.0241 4.72109 24.6301 4.72109 17.9996C4.72109 11.3691 9.43438 5.97508 15.2282 5.97508Z" fill="#1890FF"/>
</svg>
