<svg width="989" height="580" viewBox="0 0 989 580" fill="none" xmlns="http://www.w3.org/2000/svg">
<g clip-path="url(#clip0)">
<path d="M593.535 101.775C607.425 101.775 618.685 90.5152 618.685 76.6254C618.685 62.7355 607.425 51.4756 593.535 51.4756C579.645 51.4756 568.385 62.7355 568.385 76.6254C568.385 90.5152 579.645 101.775 593.535 101.775Z" stroke="#3F3D56" stroke-miterlimit="10"/>
<path d="M644.795 29.3262L638.714 23.2136C638.416 22.9089 638.061 22.6663 637.668 22.4996C637.276 22.333 636.855 22.2457 636.428 22.2428C636.002 22.2398 635.58 22.3213 635.185 22.4825C634.791 22.6437 634.432 22.8814 634.13 23.1819L595.959 61.0344L579.818 44.7664C579.521 44.4653 579.168 44.2257 578.779 44.0611C578.389 43.8965 577.971 43.8103 577.548 43.8074C577.126 43.8044 576.706 43.8848 576.315 44.0439C575.923 44.2029 575.566 44.4377 575.266 44.7346L569.121 50.8153C568.513 51.421 568.168 52.2424 568.162 53.1009C568.156 53.9594 568.489 54.7855 569.089 55.3996L593.603 80.104C594.209 80.7124 595.03 81.0571 595.889 81.0631C596.747 81.069 597.573 80.7358 598.187 80.1359L644.763 33.9106C645.068 33.6125 645.31 33.2571 645.477 32.8649C645.644 32.4726 645.731 32.0512 645.734 31.625C645.737 31.1988 645.655 30.7763 645.494 30.3817C645.333 29.9872 645.095 29.6284 644.795 29.3262Z" fill="#FFAB40"/>
<path d="M430.406 64.0505H25.6102C11.4661 64.0505 0 75.5166 0 89.6608V90.4165C0 104.561 11.4661 116.027 25.6102 116.027H430.406C444.55 116.027 456.016 104.561 456.016 90.4165V89.6608C456.016 75.5166 444.55 64.0505 430.406 64.0505Z" fill="#F2F2F2"/>
<path d="M430.976 154.17H26.1801C12.0359 154.17 0.569824 165.636 0.569824 179.781V180.536C0.569824 194.681 12.0359 206.147 26.1801 206.147H430.976C445.12 206.147 456.586 194.681 456.586 180.536V179.781C456.586 165.636 445.12 154.17 430.976 154.17Z" fill="#F2F2F2"/>
<path d="M431.546 244.291H26.7504C12.6062 244.291 1.14014 255.757 1.14014 269.901V270.657C1.14014 284.801 12.6062 296.267 26.7504 296.267H431.546C445.69 296.267 457.156 284.801 457.156 270.657V269.901C457.156 255.757 445.69 244.291 431.546 244.291Z" fill="#F2F2F2"/>
<path d="M432.116 334.411H27.3202C13.1761 334.411 1.70996 345.877 1.70996 360.021V360.777C1.70996 374.921 13.1761 386.387 27.3202 386.387H432.116C446.26 386.387 457.726 374.921 457.726 360.777V360.021C457.726 345.877 446.26 334.411 432.116 334.411Z" fill="#F2F2F2"/>
<path d="M444.657 50.6372H39.8617C25.7176 50.6372 14.2515 62.1033 14.2515 76.2474V77.0032C14.2515 91.1473 25.7176 102.613 39.8617 102.613H444.657C458.801 102.613 470.267 91.1473 470.267 77.0032V76.2474C470.267 62.1033 458.801 50.6372 444.657 50.6372Z" stroke="#3F3D56" stroke-miterlimit="10"/>
<path d="M445.228 140.757H40.432C26.2879 140.757 14.8218 152.223 14.8218 166.368V167.123C14.8218 181.267 26.2879 192.734 40.432 192.734H445.228C459.372 192.734 470.838 181.267 470.838 167.123V166.368C470.838 152.223 459.372 140.757 445.228 140.757Z" stroke="#3F3D56" stroke-miterlimit="10"/>
<path d="M445.797 230.877H41.0018C26.8577 230.877 15.3916 242.344 15.3916 256.488V257.243C15.3916 271.388 26.8577 282.854 41.0018 282.854H445.797C459.942 282.854 471.408 271.388 471.408 257.243V256.488C471.408 242.344 459.942 230.877 445.797 230.877Z" stroke="#3F3D56" stroke-miterlimit="10"/>
<path d="M446.367 320.997H41.5717C27.4275 320.997 15.9614 332.463 15.9614 346.608V347.363C15.9614 361.507 27.4275 372.974 41.5717 372.974H446.367C460.511 372.974 471.977 361.507 471.977 347.363V346.608C471.977 332.463 460.511 320.997 446.367 320.997Z" stroke="#3F3D56" stroke-miterlimit="10"/>
<path d="M593.535 192.314C607.425 192.314 618.685 181.054 618.685 167.164C618.685 153.275 607.425 142.015 593.535 142.015C579.645 142.015 568.385 153.275 568.385 167.164C568.385 181.054 579.645 192.314 593.535 192.314Z" stroke="#3F3D56" stroke-miterlimit="10"/>
<path d="M593.535 282.854C607.425 282.854 618.685 271.594 618.685 257.704C618.685 243.814 607.425 232.554 593.535 232.554C579.645 232.554 568.385 243.814 568.385 257.704C568.385 271.594 579.645 282.854 593.535 282.854Z" stroke="#3F3D56" stroke-miterlimit="10"/>
<path d="M593.535 373.393C607.425 373.393 618.685 362.133 618.685 348.243C618.685 334.353 607.425 323.093 593.535 323.093C579.645 323.093 568.385 334.353 568.385 348.243C568.385 362.133 579.645 373.393 593.535 373.393Z" stroke="#3F3D56" stroke-miterlimit="10"/>
<path d="M644.795 120.704L638.714 114.591C638.416 114.287 638.061 114.044 637.668 113.877C637.276 113.711 636.855 113.623 636.428 113.62C636.002 113.617 635.58 113.699 635.185 113.86C634.791 114.021 634.432 114.259 634.13 114.56L595.959 152.412L579.818 136.144C579.521 135.843 579.168 135.603 578.779 135.439C578.389 135.274 577.971 135.188 577.548 135.185C577.126 135.182 576.706 135.262 576.315 135.422C575.923 135.581 575.566 135.815 575.266 136.112L569.121 142.193C568.513 142.799 568.168 143.62 568.162 144.479C568.156 145.337 568.489 146.163 569.089 146.777L593.603 171.482C594.209 172.09 595.03 172.435 595.889 172.441C596.747 172.447 597.573 172.113 598.187 171.514L644.763 125.288C645.068 124.99 645.31 124.635 645.477 124.243C645.644 123.85 645.731 123.429 645.734 123.003C645.737 122.577 645.655 122.154 645.494 121.759C645.333 121.365 645.095 121.006 644.795 120.704V120.704Z" fill="#FFAB40"/>
<path d="M644.795 303.459L638.714 297.346C638.416 297.042 638.061 296.799 637.668 296.632C637.276 296.466 636.855 296.379 636.428 296.376C636.002 296.373 635.58 296.454 635.185 296.615C634.791 296.776 634.432 297.014 634.13 297.315L595.959 335.167L579.818 318.899C579.521 318.598 579.168 318.358 578.779 318.194C578.389 318.029 577.971 317.943 577.548 317.94C577.126 317.937 576.706 318.018 576.315 318.177C575.923 318.336 575.566 318.57 575.266 318.867L569.121 324.948C568.513 325.554 568.168 326.375 568.162 327.234C568.156 328.092 568.489 328.918 569.089 329.532L593.603 354.237C594.209 354.845 595.03 355.19 595.889 355.196C596.747 355.202 597.573 354.869 598.187 354.269L644.763 308.043C645.068 307.745 645.31 307.39 645.477 306.998C645.644 306.605 645.731 306.184 645.734 305.758C645.737 305.332 645.655 304.909 645.494 304.515C645.333 304.12 645.095 303.761 644.795 303.459Z" fill="#FFAB40"/>
<path d="M809.234 579.5C894.286 579.5 963.234 568.755 963.234 555.5C963.234 542.245 894.286 531.5 809.234 531.5C724.182 531.5 655.234 542.245 655.234 555.5C655.234 568.755 724.182 579.5 809.234 579.5Z" fill="#F2F2F2"/>
<path d="M834.234 570.5C919.286 570.5 988.234 559.755 988.234 546.5C988.234 533.245 919.286 522.5 834.234 522.5C749.182 522.5 680.234 533.245 680.234 546.5C680.234 559.755 749.182 570.5 834.234 570.5Z" stroke="#3F3D56" stroke-miterlimit="10"/>
<path d="M909.848 109.868C909.403 109.361 908.946 108.868 908.476 108.389C912.085 104.294 915.821 100.094 915.788 94.8311C915.748 88.435 910.073 83.5278 907.954 77.4814C905.069 69.2524 909.072 60.4368 910.718 51.8839C911.999 44.9349 911.73 37.7889 909.931 30.9558C908.131 24.1227 904.846 17.7712 900.308 12.3545C898.641 10.3843 896.705 8.47875 894.224 7.69675C890.449 6.50675 886.434 8.16006 882.501 8.64574C869.517 10.249 857.705 -0.93793 844.66 0.0635701C843.795 0.0949759 842.944 0.285556 842.149 0.62575C840.461 1.43303 839.545 3.21434 838.502 4.74985C834.45 10.7121 827.645 13.6754 820.875 16.7378C820.024 16.9878 819.214 17.3593 818.47 17.8408C816.437 18.7874 814.435 19.7744 812.546 20.8925C799.764 28.4581 801.618 39.0434 809.154 45.5819C807.682 52.9219 800.178 59.3855 801.471 66.9319C802.484 72.8478 808.645 76.874 809.831 82.7586C810.521 86.1764 809.435 89.4333 807.928 92.6662C793.624 95.9763 777.466 102.072 776.205 112.83C774.011 131.546 767.407 183.236 767.407 183.236C767.407 183.236 759.758 224.651 788.827 205.073L788.453 206.175C783.215 222.034 779.639 238.394 777.784 254.992C777.489 257.461 776.898 259.407 775.822 260.042C775.432 260.273 776.204 260.638 777.883 261.094C777.693 261.791 777.488 262.483 777.306 263.182C774.112 275.286 772.071 287.666 771.209 300.155C770.391 311.217 768.865 322.216 766.642 333.083C759.758 367.721 766.642 412.149 766.642 412.149L781.666 482.886L784.237 494.979C785.934 496.856 788.01 498.354 790.326 499.373C791.332 503.707 792.03 508.107 792.414 512.539C792.455 513.032 792.488 513.532 792.52 514.032C791.62 514.147 790.755 514.455 789.986 514.935C789.216 515.416 788.56 516.057 788.062 516.816C782.707 524.346 788.827 530.37 768.172 545.43C762.836 549.321 760.263 552.858 759.61 555.863V555.864C758.907 559.098 760.433 561.715 763.158 563.487L763.163 563.49C763.627 563.79 764.11 564.06 764.608 564.298L764.632 564.309C764.884 564.43 765.143 564.545 765.408 564.654L765.412 564.655C765.678 564.764 765.95 564.867 766.228 564.964L766.276 564.98C766.537 565.07 766.803 565.155 767.074 565.234L767.132 565.252C767.413 565.333 767.699 565.408 767.989 565.478C768.014 565.484 768.039 565.489 768.064 565.495C768.33 565.557 768.6 565.615 768.873 565.667C768.909 565.674 768.944 565.681 768.979 565.688C769.271 565.742 769.567 565.79 769.865 565.833C769.898 565.838 769.931 565.842 769.963 565.846C770.23 565.883 770.5 565.915 770.772 565.942C770.824 565.947 770.875 565.953 770.927 565.957C771.225 565.985 771.526 566.007 771.828 566.024C771.867 566.026 771.905 566.027 771.944 566.029C772.212 566.041 772.481 566.049 772.751 566.052C772.814 566.053 772.878 566.055 772.941 566.055C773.243 566.056 773.546 566.053 773.85 566.042C773.89 566.041 773.93 566.038 773.97 566.037C774.239 566.026 774.508 566.011 774.778 565.99C774.85 565.985 774.921 565.98 774.993 565.974C775.296 565.949 775.599 565.919 775.903 565.881C775.939 565.877 775.975 565.871 776.011 565.867C776.283 565.832 776.554 565.792 776.826 565.747C776.901 565.735 776.977 565.722 777.052 565.709C777.354 565.656 777.655 565.599 777.955 565.534C777.984 565.528 778.013 565.521 778.042 565.514C778.316 565.454 778.589 565.387 778.861 565.316C778.938 565.296 779.015 565.276 779.092 565.255C779.389 565.174 779.685 565.088 779.978 564.995L780.027 564.978C780.306 564.888 780.583 564.79 780.858 564.689C780.932 564.661 781.006 564.633 781.08 564.605C781.37 564.494 781.658 564.379 781.942 564.255C795.711 558.231 824.015 542.418 824.015 542.418L824.015 542.274L824.014 542.178L824.014 542.038L824.013 541.913L824.011 541.693L824.009 541.497C824.008 541.419 824.008 541.341 824.007 541.254L824.004 541.023C824.002 540.918 824.001 540.815 823.999 540.699C823.998 540.621 823.996 540.535 823.995 540.453C823.993 540.332 823.991 540.216 823.989 540.085C823.985 539.877 823.981 539.658 823.976 539.428C823.835 532.847 823.186 517.732 820.19 518.322C819.17 518.523 818.476 519.957 817.76 521.609C817.644 521.39 817.526 521.167 817.406 520.935C814.49 515.312 810.273 505.661 809.862 496.229C812.214 494.525 814.392 492.593 816.365 490.461C816.365 490.461 814.828 483.985 813.52 477.155C812.388 471.237 811.424 465.047 811.776 462.6C812.541 457.329 802.596 416.667 802.596 416.667C802.596 416.667 803.621 407.721 805.679 395.289C809.68 371.125 817.559 333.784 829.316 323.227C829.592 322.986 829.86 322.752 830.135 322.541C830.135 322.541 838.55 324.047 845.434 371.486L847.431 392.616C848.003 398.467 848.995 404.27 850.399 409.98C852.452 419.085 853.1 428.45 852.319 437.751C851.447 450.205 851.072 464.866 850.912 475.16C850.789 482.916 850.789 488.202 850.789 488.202C852.213 489.404 853.75 490.467 855.379 491.373V498.283C855.363 499.749 854.787 501.153 853.769 502.209L853.742 502.238C852.657 503.459 851.867 504.912 851.432 506.487C850.097 508.891 848.967 512.795 848.494 519.075C846.964 539.406 846.199 537.147 846.199 537.147C845.321 539.345 844.738 541.651 844.465 544.003V544.003V544.003C844.421 544.443 844.394 544.886 844.386 545.329C844.385 545.399 844.385 545.468 844.385 545.538C844.384 545.741 844.388 545.944 844.396 546.146C844.4 546.245 844.405 546.344 844.412 546.443C844.422 546.593 844.434 546.742 844.45 546.891C844.464 547.026 844.48 547.16 844.499 547.294C844.513 547.389 844.527 547.485 844.543 547.579C844.574 547.759 844.611 547.938 844.652 548.114C844.671 548.193 844.691 548.271 844.712 548.349C844.761 548.533 844.814 548.715 844.875 548.893C844.895 548.949 844.917 549.004 844.938 549.059C844.998 549.222 845.065 549.381 845.137 549.538C845.159 549.585 845.178 549.633 845.201 549.68C845.291 549.862 845.391 550.038 845.497 550.21C845.527 550.257 845.556 550.305 845.587 550.351C845.7 550.523 845.822 550.688 845.953 550.847C845.984 550.884 846.017 550.92 846.049 550.956C846.192 551.123 846.346 551.281 846.509 551.429C846.526 551.444 846.546 551.458 846.563 551.474C846.731 551.62 846.907 551.757 847.092 551.882C847.12 551.902 847.147 551.923 847.177 551.942C847.379 552.074 847.589 552.194 847.806 552.301C847.849 552.323 847.892 552.344 847.936 552.365C848.17 552.476 848.409 552.573 848.654 552.657C848.696 552.671 848.74 552.684 848.783 552.698C849.062 552.79 849.346 552.866 849.634 552.927L849.664 552.933C849.962 552.994 850.279 553.041 850.608 553.077C850.654 553.082 850.697 553.089 850.744 553.093C851.07 553.125 851.414 553.143 851.773 553.149C851.839 553.15 851.906 553.151 851.974 553.151C852.337 553.153 852.715 553.142 853.111 553.115C853.173 553.111 853.237 553.105 853.299 553.1C853.72 553.068 854.155 553.024 854.614 552.96C870.679 550.701 878.328 549.195 877.563 540.159C877.102 534.713 875.808 526.804 874.852 521.38C874.367 518.624 873.475 515.955 872.205 513.461C872.245 513.038 872.282 512.603 872.316 512.155C872.591 508.42 872.576 503.977 871.444 501.003L871.796 494.41C875.781 493.398 879.382 491.24 882.153 488.202C882.153 488.202 882.268 483.315 882.605 476.839C883.109 466.832 884.119 453.021 885.978 447.54C889.038 438.504 885.978 406.878 885.978 406.878C885.978 406.878 874.503 352.661 885.213 329.318C894.662 308.727 894.578 288.129 885.491 268.053C885.671 267.911 885.834 267.75 885.978 267.572C885.978 267.572 883.683 266.066 884.448 248.747C885.032 235.529 881.162 221.883 879.296 216.156C882.221 217.409 885.219 218.486 888.273 219.38C905.867 224.651 907.397 205.073 907.397 205.073L911.222 175.706L915.759 131.932L915.758 131.93C917.002 128.496 918.669 119.918 909.848 109.868ZM832.082 80.8529C832.06 81.3375 832.028 81.8217 831.979 82.3036C831.836 83.8615 831.507 85.3966 830.998 86.8757C831.521 84.8772 831.839 82.8306 831.947 80.7676C831.992 80.7966 832.037 80.8242 832.082 80.8529L832.082 80.8529ZM878.328 187.754C878.6 188.251 878.858 188.735 879.107 189.211L877.175 188.225C877.89 184.674 879.049 181.227 880.623 177.965C882.524 174.169 884.089 170.214 885.299 166.144C885.245 170.847 885.471 175.548 885.978 180.224C887.508 192.272 878.328 187.754 878.328 187.754Z" fill="url(#paint0_linear)"/>
<path d="M813.459 24.0372C811.014 25.7047 808.458 27.6322 807.587 30.4613C806.184 35.024 809.707 39.605 810.055 44.366C810.689 53.0233 800.898 60.178 802.342 68.7377C803.331 74.6047 809.345 78.5976 810.503 84.4335C812.193 92.9447 802.967 100.45 803.693 109.097C804.08 113.703 807.283 117.615 810.918 120.469C816.021 124.462 822.127 126.968 828.563 127.71C828.135 120.306 822.644 113.569 823.586 106.213C824.232 101.169 827.781 97.044 829.834 92.3914C833.439 84.2226 832.286 74.7675 830.123 66.1044C827.961 57.4413 824.839 48.8775 824.682 39.9501C824.588 34.5766 827.109 26.6778 825.259 21.5788C823.011 15.3801 817.649 21.1802 813.459 24.0372Z" fill="black"/>
<path opacity="0.1" d="M813.263 24.2129C810.817 25.8805 808.261 27.808 807.391 30.637C805.987 35.1997 809.51 39.7808 809.859 44.5418C810.492 53.1991 800.702 60.3538 802.145 68.9134C803.135 74.7804 809.149 78.7733 810.307 84.6093C811.997 93.1205 802.771 100.626 803.497 109.273C803.884 113.879 807.087 117.79 810.722 120.645C815.825 124.638 821.931 127.144 828.367 127.886C827.939 120.482 822.447 113.745 823.39 106.389C824.036 101.345 827.585 97.2198 829.638 92.5672C833.243 84.3984 832.09 74.9432 829.927 66.2802C827.765 57.6171 824.643 49.0533 824.486 40.1258C824.391 34.7523 826.913 26.8535 825.063 21.7545C822.815 15.5559 817.453 21.356 813.263 24.2129Z" fill="black"/>
<path d="M820.617 523.862L813.896 530.583C813.896 530.583 789.999 543.278 792.986 526.103C793.803 520.997 793.976 515.808 793.501 510.659C792.884 503.473 791.458 496.378 789.252 489.511L811.655 485.03C807.929 496.739 814.067 511.481 817.898 518.986C819.444 522.01 820.617 523.862 820.617 523.862Z" fill="#FFB9B9"/>
<path d="M871.502 510.279C871.334 512.579 871.05 514.87 870.65 517.141C870.65 517.141 851.981 529.837 850.487 515.648C849.517 506.403 851.712 502.228 853.37 500.444L853.396 500.415C854.392 499.362 854.954 497.971 854.968 496.521V479.803L871.397 485.03L870.65 499.219C871.755 502.169 871.77 506.575 871.502 510.279Z" fill="#FFB9B9"/>
<path opacity="0.05" d="M820.617 523.862L813.896 530.583C813.896 530.583 789.999 543.278 792.986 526.103C793.803 520.997 793.976 515.808 793.501 510.659C798.736 509.89 804.934 515.648 804.934 515.648C813.686 527.999 816.046 523.325 817.898 518.986C819.444 522.01 820.617 523.862 820.617 523.862Z" fill="black"/>
<path d="M804.934 517.141C804.934 517.141 794.479 507.433 789.252 514.901C784.024 522.369 789.999 528.343 769.836 543.279C749.673 558.214 769.836 567.922 783.278 561.948C796.72 555.974 824.35 540.291 824.35 540.291C824.35 540.291 824.35 515.648 820.616 516.395C816.883 517.141 817.629 535.064 804.934 517.141Z" fill="#AEEA00"/>
<path opacity="0.05" d="M871.502 510.279C871.334 512.579 871.05 514.87 870.65 517.141C870.65 517.141 851.981 529.837 850.487 515.648C849.517 506.403 851.712 502.228 853.37 500.444C854.018 499.954 854.788 499.651 855.596 499.566C856.404 499.482 857.22 499.62 857.955 499.966C860.942 498.636 864.228 500.854 866.946 503.722C868.788 505.664 870.324 507.875 871.502 510.279Z" fill="black"/>
<path d="M857.955 501.459C857.955 501.459 849.74 496.978 848.247 517.141C846.753 537.304 846.006 535.064 846.006 535.064C846.006 535.064 838.539 552.987 854.221 550.746C869.903 548.506 877.371 547.012 876.624 538.051C876.174 532.65 874.91 524.807 873.977 519.428C873.088 514.1 870.642 509.154 866.949 505.212C864.224 502.344 860.942 500.132 857.955 501.459Z" fill="#AEEA00"/>
<path d="M884.839 405.872C884.839 405.872 887.826 437.237 884.839 446.198C883.024 451.634 882.038 465.33 881.546 475.255C881.217 481.677 881.105 486.524 881.105 486.524C866.916 501.459 850.487 486.524 850.487 486.524C850.487 486.524 850.487 481.281 850.607 473.59C850.764 463.381 851.129 448.841 851.981 436.49C852.743 427.267 852.111 417.983 850.106 408.949C848.735 403.284 847.767 397.53 847.209 391.728L845.26 370.774C838.539 323.727 830.324 322.233 830.324 322.233C830.056 322.442 829.794 322.674 829.525 322.913C818.047 333.383 810.356 370.415 806.45 394.379C804.441 406.708 803.44 415.58 803.44 415.58C803.44 415.58 813.149 455.906 812.402 461.133C812.058 463.56 812.999 469.699 814.104 475.568C815.381 482.342 816.882 488.764 816.882 488.764C798.213 508.927 785.518 493.245 785.518 493.245L783.009 481.251L768.342 411.099C768.342 411.099 761.621 367.04 768.342 332.688C770.513 321.907 772.002 311 772.8 300.032C773.64 287.651 775.633 275.376 778.752 263.365C779.663 259.81 780.674 256.283 781.784 252.783C781.784 252.783 809.825 247.907 836.231 247.907C856.036 247.907 874.914 250.647 880.358 260.251C881.613 262.461 882.753 264.677 883.778 266.897C893.233 287.217 893.516 308.089 884.092 328.954C873.637 352.104 884.839 405.872 884.839 405.872Z" fill="black"/>
<path d="M822.11 134.793C822.11 134.793 782.531 94.467 812.402 97.4541C819.175 98.1336 823.76 96.9239 826.8 94.6537C830.265 92.0698 831.721 88.1119 832.124 83.9822C832.946 75.7453 829.578 66.8363 829.578 66.8363C829.578 66.8363 869.903 34.725 861.689 75.0509C860.787 79.1489 860.262 83.3208 860.121 87.5145C859.986 96.0725 862.802 99.3509 866.752 100.695C873.413 102.973 883.315 99.7841 887.826 107.162C896.041 120.604 822.11 134.793 822.11 134.793Z" fill="#FFB9B9"/>
<path opacity="0.1" d="M822.11 134.793C822.11 134.793 782.531 94.467 812.402 97.4541C819.175 98.1336 823.76 96.9239 826.8 94.6537C830.265 92.0698 831.721 88.1119 832.124 83.9822C832.946 75.7453 829.578 66.8363 829.578 66.8363C829.578 66.8363 869.903 34.725 861.689 75.0509C860.787 79.1489 860.262 83.3208 860.121 87.5145C859.986 96.0725 862.802 99.3509 866.752 100.695C873.413 102.973 883.315 99.7841 887.826 107.162C896.041 120.604 822.11 134.793 822.11 134.793Z" fill="black"/>
<path d="M881.852 55.6347C881.847 64.148 878.462 72.3111 872.44 78.3292C866.419 84.3474 858.254 87.7281 849.741 87.7281C841.227 87.7281 833.062 84.3474 827.041 78.3292C821.019 72.3111 817.634 64.148 817.629 55.6347C817.629 55.0373 817.644 54.4398 817.682 53.8499C818.146 45.5011 821.849 37.6628 828.003 32.0017C834.157 26.3406 842.276 23.3034 850.635 23.5359C858.993 23.7683 866.931 27.2522 872.761 33.2466C878.591 39.2409 881.852 47.273 881.852 55.6347V55.6347Z" fill="#FFB9B9"/>
<path opacity="0.05" d="M822.11 134.793C822.11 134.793 782.531 94.4669 812.402 97.454C819.175 98.1335 823.76 96.9237 826.8 94.6536C821.02 104.242 814.515 121.485 843.766 119.857C870.538 118.371 870.083 107.7 866.752 100.695C873.413 102.973 883.315 99.7839 887.826 107.162C896.041 120.604 822.11 134.793 822.11 134.793Z" fill="black"/>
<path opacity="0.1" d="M884.839 269.959C878.043 278.793 791.417 267.211 778.752 263.365C779.663 259.81 780.674 256.283 781.784 252.783C781.784 252.783 809.825 247.907 836.231 247.907C856.036 247.907 874.914 250.647 880.358 260.251C881.613 262.461 882.753 264.677 883.778 266.897C884.256 269.571 884.839 269.959 884.839 269.959Z" fill="black"/>
<path d="M830.325 90.7332C830.325 90.7332 779.917 94.8404 777.677 114.257C775.535 132.818 769.089 184.08 769.089 184.08C769.089 184.08 761.621 225.153 789.999 205.736L789.634 206.829C784.518 222.569 781.028 238.792 779.219 255.243C778.931 257.691 778.354 259.621 777.304 260.251C773.57 262.491 877.371 277.427 884.839 267.719C884.839 267.719 882.599 266.225 883.346 249.049C884.092 231.874 877.371 213.951 877.371 213.951C877.371 213.951 871.397 196.028 879.612 178.853C887.826 161.677 884.839 156.449 884.839 156.449L913.217 134.793C913.217 134.793 919.345 124.287 908.141 111.319C904.778 107.483 900.69 104.347 896.114 102.092C891.537 99.8372 886.561 98.5067 881.469 98.1768L861.896 96.7845C861.896 96.7845 883.346 119.857 843.02 122.098C802.694 124.338 830.325 90.7332 830.325 90.7332Z" fill="#AEEA00"/>
<path opacity="0.05" d="M796.72 131.806C796.72 131.806 798.213 143.754 795.226 147.488C792.239 151.222 791.492 168.398 795.226 178.852" fill="black"/>
<path opacity="0.1" d="M829.525 322.913C818.047 333.383 810.356 370.415 806.45 394.379C801.013 361.021 823.603 305.804 823.603 305.804L829.525 322.913Z" fill="black"/>
<path opacity="0.1" d="M816.882 488.764C798.213 508.927 785.518 493.245 785.518 493.245L783.009 481.251C790.066 484.918 801.992 487.763 814.104 475.568C815.381 482.342 816.882 488.764 816.882 488.764Z" fill="black"/>
<path opacity="0.1" d="M881.546 475.255C881.217 481.677 881.105 486.523 881.105 486.523C866.916 501.459 850.487 486.523 850.487 486.523C850.487 486.523 850.487 481.281 850.607 473.589C856.768 477.502 867.842 481.811 881.546 475.255Z" fill="black"/>
<path d="M847.484 157.196H804.204C802.133 157.196 800.454 158.875 800.454 160.946V174.356C800.454 176.427 802.133 178.106 804.204 178.106H847.484C849.555 178.106 851.234 176.427 851.234 174.356V160.946C851.234 158.875 849.555 157.196 847.484 157.196Z" fill="#CDD0DB"/>
<path opacity="0.05" d="M847.484 157.196H804.204C802.133 157.196 800.454 158.875 800.454 160.946V174.356C800.454 176.427 802.133 178.106 804.204 178.106H847.484C849.555 178.106 851.234 176.427 851.234 174.356V160.946C851.234 158.875 849.555 157.196 847.484 157.196Z" fill="black"/>
<path d="M847.484 157.943H804.204C802.133 157.943 800.454 159.622 800.454 161.693V175.103C800.454 177.174 802.133 178.853 804.204 178.853H847.484C849.555 178.853 851.234 177.174 851.234 175.103V161.693C851.234 159.622 849.555 157.943 847.484 157.943Z" fill="#3F3D56"/>
<path d="M840.406 170.265C841.643 170.265 842.646 169.262 842.646 168.024C842.646 166.787 841.643 165.784 840.406 165.784C839.169 165.784 838.166 166.787 838.166 168.024C838.166 169.262 839.169 170.265 840.406 170.265Z" fill="#9DA7C0"/>
<path opacity="0.05" d="M778.841 190.308C779.515 188.301 780.619 186.466 782.076 184.93C783.533 183.395 785.309 182.197 787.278 181.42C790.43 180.251 793.02 177.925 794.521 174.916C797.466 168.398 802.694 161.677 816.136 166.157C829.578 170.638 812.402 173.625 812.402 173.625C812.402 173.625 843.02 169.144 831.071 178.106C819.123 187.067 804.187 192.294 804.187 192.294L796.833 200.081C795.779 201.219 794.496 202.121 793.069 202.727C791.642 203.334 790.102 203.632 788.552 203.601C787.001 203.57 785.475 203.211 784.072 202.549C782.67 201.886 781.424 200.934 780.416 199.755C779.342 198.461 778.629 196.904 778.353 195.244C778.076 193.585 778.244 191.881 778.841 190.308Z" fill="black"/>
<path d="M778.095 188.814C778.768 186.808 779.872 184.972 781.329 183.437C782.787 181.902 784.562 180.704 786.531 179.927C789.684 178.757 792.273 176.432 793.774 173.423C796.72 166.904 801.947 160.183 815.389 164.664C828.831 169.144 811.655 172.132 811.655 172.132C811.655 172.132 842.273 167.651 830.325 176.612C818.376 185.573 803.441 190.801 803.441 190.801L796.087 198.588C795.033 199.725 793.75 200.627 792.322 201.234C790.895 201.84 789.356 202.138 787.805 202.107C786.254 202.077 784.728 201.718 783.326 201.055C781.924 200.393 780.678 199.441 779.67 198.262C778.595 196.967 777.883 195.411 777.606 193.751C777.329 192.091 777.498 190.388 778.095 188.814V188.814Z" fill="#FFB9B9"/>
<path opacity="0.05" d="M883.345 204.243L878.118 216.938L871.427 212.017L852.728 198.269L840.032 190.054C822.11 176.612 840.032 174.372 840.032 174.372C833.311 171.385 840.032 168.398 840.032 168.398C863.929 163.17 859.449 182.586 859.449 182.586L874.586 190.435L879.612 193.041L883.345 204.243Z" fill="black"/>
<path d="M884.839 202.749L879.612 215.444L872.921 210.523L854.221 196.775L841.526 188.56C823.604 175.119 841.526 172.878 841.526 172.878C834.805 169.891 841.526 166.904 841.526 166.904C865.423 161.677 860.942 181.093 860.942 181.093L876.079 188.941L881.105 191.548L884.839 202.749Z" fill="#FFB9B9"/>
<path opacity="0.05" d="M884.839 202.749L879.612 215.444L872.92 210.523C878.977 210.74 886.131 207.812 876.079 188.941L881.105 191.548L884.839 202.749Z" fill="black"/>
<path d="M912.47 127.325L913.911 133.2L909.483 176.612L905.749 205.736C905.749 205.736 904.255 225.152 887.08 219.925C869.904 214.698 868.41 209.47 868.41 209.47C868.41 209.47 893.054 217.685 877.371 188.56C877.371 188.56 886.333 193.041 884.839 181.093C883.346 169.144 884.839 148.235 884.839 148.235L912.47 127.325Z" fill="#AEEA00"/>
<path opacity="0.05" d="M881.852 55.6347C881.852 62.9173 879.377 69.9837 874.832 75.6746C870.288 81.3655 863.945 85.3429 856.842 86.9544C855.767 83.8478 855.005 80.7562 855.789 77.6123C857.305 71.5111 864.348 67.0603 863.563 60.8248C863.498 60.1228 863.253 59.4493 862.854 58.8682C861.278 56.7922 858.067 57.8227 855.513 58.338C852.185 58.8896 848.769 58.218 845.898 56.4472C843.026 54.6765 840.892 51.9262 839.891 48.7046C837.023 51.5259 833.431 53.4995 829.511 54.4075C825.592 55.3155 821.498 55.1225 817.682 53.8499C818.146 45.5011 821.849 37.6628 828.003 32.0017C834.157 26.3406 842.276 23.3034 850.635 23.5359C858.993 23.7683 866.931 27.2522 872.761 33.2466C878.591 39.2409 881.852 47.273 881.852 55.6347V55.6347Z" fill="black"/>
<path d="M840.641 47.2135C841.641 50.4345 843.773 53.1844 846.644 54.9546C849.515 56.7248 852.929 57.3957 856.256 56.843C858.813 56.3327 862.022 55.3015 863.598 57.378C864 57.9551 864.245 58.6273 864.307 59.3279C865.097 65.5675 858.054 70.0157 856.537 76.1195C854.975 82.4049 859.554 88.4757 860.529 94.8785C861.062 98.3811 860.498 101.949 860.538 105.492C860.579 109.035 861.374 112.84 864.001 115.218C866.627 117.597 871.481 117.621 873.241 114.545C881.644 118.986 878.288 132.748 884.669 139.792C888.188 143.677 893.977 144.611 899.196 144.113C900.418 144.095 901.607 143.711 902.61 143.011C903.475 142.16 904.058 141.064 904.28 139.872C905.597 134.887 905.371 129.62 903.63 124.766C902.792 122.447 901.592 120.101 901.902 117.654C902.283 115.757 903.179 114 904.493 112.579C908.504 107.605 913.98 102.796 913.94 96.4063C913.9 90.063 908.361 85.1964 906.292 79.2C903.476 71.0391 907.383 62.2964 908.991 53.8142C910.245 46.9338 909.986 39.8627 908.231 33.0927C906.476 26.3227 903.267 20.0162 898.828 14.6117C897.2 12.6578 895.31 10.768 892.889 9.99244C889.203 8.81229 885.284 10.452 881.444 10.9336C868.77 12.5236 857.239 1.42921 844.504 2.42242C843.659 2.45377 842.827 2.64288 842.052 2.97999C840.404 3.78055 839.511 5.54714 838.492 7.06999C832.871 15.474 821.819 17.8688 813.154 23.079C787.848 38.2949 821.288 65.8392 840.641 47.2135Z" fill="black"/>
<path opacity="0.3" d="M783.277 558.961C774.551 562.839 762.995 560.106 761.477 553.626C759.647 562.182 773.308 566.378 783.277 561.948C796.719 555.973 824.35 540.291 824.35 540.291C824.35 540.291 824.35 539.131 824.312 537.326C823.507 537.782 796.518 553.076 783.277 558.961Z" fill="white"/>
<path opacity="0.3" d="M876.586 537.621C875.725 544.339 868.273 545.752 854.221 547.759C847.075 548.78 844.742 545.612 844.313 541.863C843.846 546.665 845.21 552.034 854.221 550.746C869.903 548.506 877.371 547.012 876.624 538.051C876.613 537.912 876.598 537.764 876.586 537.621Z" fill="white"/>
<g opacity="0.1">
<path opacity="0.1" d="M902.182 140.823C896.964 141.32 891.175 140.386 887.655 136.501C881.275 129.458 884.63 115.695 876.227 111.255C874.468 114.33 869.613 114.306 866.987 111.928C864.361 109.55 863.565 105.744 863.525 102.201C863.485 98.6584 864.049 95.0903 863.515 91.5877C862.541 85.1849 857.961 79.1141 859.523 72.8287C861.04 66.7249 868.083 62.2767 867.293 56.037C867.231 55.3365 866.987 54.6643 866.585 54.0872C865.009 52.0107 861.799 53.042 859.243 53.5522C855.916 54.1049 852.501 53.4341 849.631 51.6638C846.76 49.8936 844.627 47.1436 843.627 43.9227C826.328 60.5717 797.78 40.3312 809.988 24.98C790.938 40.4613 822.19 64.6664 840.64 46.9098C841.64 50.1308 843.773 52.8806 846.643 54.6509C849.514 56.4211 852.929 57.092 856.256 56.5393C858.812 56.0291 862.022 54.9978 863.598 57.0743C864 57.6514 864.244 58.3236 864.306 59.0242C865.096 65.2638 858.053 69.712 856.536 75.8158C854.974 82.1012 859.554 88.172 860.528 94.5748C861.062 98.0774 860.498 101.645 860.538 105.188C860.578 108.731 861.374 112.537 864 114.915C866.626 117.293 871.481 117.317 873.24 114.242C881.643 118.682 878.288 132.445 884.668 139.488C888.188 143.373 893.977 144.307 899.195 143.81C900.418 143.791 901.607 143.407 902.61 142.708C903.258 142.117 903.734 141.361 903.988 140.521C903.396 140.674 902.792 140.775 902.182 140.823V140.823Z" fill="black"/>
<path opacity="0.1" d="M841.479 3.7791C841.735 3.3956 841.984 2.99669 842.239 2.60156C842.177 2.62799 842.112 2.64677 842.052 2.67622C840.404 3.47682 839.51 5.24339 838.492 6.76622C838.141 7.29002 837.77 7.79116 837.379 8.26962C838.953 6.97609 840.333 5.46391 841.479 3.7791Z" fill="black"/>
</g>
<path opacity="0.1" d="M800.453 212.685C800.453 212.685 798.521 219.406 811.216 222.393C823.911 225.38 800.453 212.685 800.453 212.685Z" fill="black"/>
<path opacity="0.1" d="M794.895 232.599C794.895 232.599 788.414 237.328 804.047 245.543C819.679 253.757 794.895 232.599 794.895 232.599Z" fill="black"/>
<path opacity="0.1" d="M780.35 311.508C780.35 311.508 797.944 306.53 800.348 299.062C802.753 291.594 780.35 311.508 780.35 311.508Z" fill="black"/>
<path opacity="0.1" d="M780.35 406.099C780.35 406.099 787.93 409.833 792.727 409.335C797.525 408.838 780.35 406.099 780.35 406.099Z" fill="black"/>
<path opacity="0.1" d="M783.009 416.554C783.009 416.554 786.436 418.297 792.727 418.546C799.019 418.795 783.009 416.554 783.009 416.554Z" fill="black"/>
<path d="M911.722 445.2C913.983 446.022 916.403 446.307 918.792 446.034C921.182 445.761 923.475 444.936 925.491 443.626C927.508 442.315 929.192 440.554 930.412 438.481C931.631 436.408 932.353 434.081 932.519 431.681C932.686 429.282 932.293 426.877 931.372 424.656C930.45 422.434 929.025 420.457 927.21 418.88C925.394 417.304 923.236 416.17 920.908 415.569C918.579 414.969 916.142 414.917 913.79 415.418L914.179 423.411L910.398 416.561C906.686 418.305 903.819 421.451 902.426 425.308C901.932 426.659 901.631 428.073 901.533 429.508C901.294 432.876 902.16 436.23 903.999 439.061C905.837 441.893 908.549 444.048 911.722 445.2V445.2Z" fill="#FFAB40"/>
<path d="M930.433 537.901C929.098 531.104 934.883 525.078 940.596 521.161C946.31 517.244 952.986 513.395 954.935 506.748C957.737 497.195 949.391 488.446 942.896 480.901C938.077 475.302 933.938 469.151 930.567 462.578C929.101 459.996 928.103 457.176 927.618 454.247C927.106 450.012 928.466 445.798 929.837 441.759C934.403 428.303 939.285 414.96 944.482 401.729" stroke="#3F3D56" stroke-miterlimit="10"/>
<path d="M912.362 443.142C914.622 443.964 917.042 444.249 919.432 443.976C921.821 443.703 924.114 442.878 926.131 441.568C928.147 440.257 929.832 438.496 931.051 436.423C932.271 434.35 932.993 432.023 933.159 429.624C933.326 427.224 932.933 424.819 932.011 422.598C931.09 420.376 929.665 418.399 927.849 416.823C926.033 415.246 923.876 414.112 921.547 413.511C919.219 412.911 916.782 412.859 914.43 413.36L914.819 421.353L911.037 414.503C907.326 416.247 904.459 419.393 903.066 423.25C902.571 424.601 902.27 426.015 902.173 427.45C901.934 430.818 902.799 434.172 904.638 437.003C906.477 439.835 909.188 441.99 912.362 443.142Z" stroke="#3F3D56" stroke-miterlimit="10"/>
<path d="M928.536 398.969C929.423 396.521 930.911 394.337 932.865 392.616C934.818 390.895 937.173 389.693 939.713 389.122L940.991 396.72L943.362 388.74C946.653 388.789 949.844 389.882 952.473 391.862C955.102 393.843 957.034 396.607 957.99 399.757C958.945 402.907 958.875 406.279 957.789 409.387C956.704 412.494 954.658 415.176 951.949 417.045C949.24 418.914 946.006 419.874 942.716 419.786C939.426 419.698 936.248 418.567 933.643 416.555C931.037 414.544 929.138 411.756 928.22 408.595C927.303 405.434 927.413 402.063 928.536 398.969V398.969Z" fill="#FFAB40"/>
<path d="M929.388 396.225C930.275 393.778 931.764 391.593 933.717 389.872C935.67 388.151 938.025 386.95 940.565 386.378L941.844 393.976L944.214 385.996C947.505 386.045 950.696 387.138 953.325 389.119C955.955 391.099 957.887 393.864 958.842 397.014C959.798 400.163 959.728 403.535 958.642 406.643C957.556 409.75 955.511 412.432 952.801 414.301C950.092 416.171 946.859 417.131 943.568 417.043C940.278 416.955 937.101 415.823 934.495 413.811C931.89 411.8 929.991 409.012 929.073 405.851C928.155 402.69 928.265 399.319 929.388 396.225V396.225Z" stroke="#3F3D56" stroke-miterlimit="10"/>
<path d="M940.17 481.055C943.755 482.355 947.692 482.291 951.232 480.875C954.773 479.458 957.668 476.789 959.366 473.375C961.065 469.961 961.448 466.041 960.442 462.363C959.436 458.685 957.112 455.506 953.913 453.431L952.092 459.564L950.8 451.876C950.787 451.87 950.774 451.865 950.76 451.861C946.889 450.457 942.618 450.648 938.888 452.392C935.157 454.136 932.273 457.291 930.868 461.163C929.464 465.034 929.655 469.305 931.399 473.035C933.144 476.766 936.299 479.651 940.17 481.055H940.17Z" fill="#FFAB40"/>
<path d="M940.909 478.276C944.493 479.576 948.431 479.512 951.971 478.096C955.511 476.679 958.407 474.01 960.105 470.596C961.804 467.182 962.186 463.262 961.181 459.584C960.175 455.906 957.851 452.727 954.652 450.652L952.83 456.785L951.539 449.097C951.526 449.091 951.513 449.086 951.499 449.082C949.582 448.387 947.547 448.076 945.51 448.167C943.473 448.258 941.474 448.749 939.627 449.613C937.78 450.477 936.121 451.696 934.745 453.201C933.369 454.706 932.302 456.467 931.607 458.384C930.912 460.301 930.601 462.336 930.692 464.373C930.783 466.41 931.274 468.409 932.138 470.256C933.002 472.103 934.221 473.762 935.726 475.138C937.231 476.514 938.992 477.581 940.909 478.276V478.276Z" stroke="#3F3D56" stroke-miterlimit="10"/>
<path d="M924.004 506.843C924.62 510.35 926.423 513.538 929.111 515.874C931.8 518.209 935.209 519.548 938.767 519.668C942.326 519.788 945.818 518.681 948.657 516.532C951.496 514.383 953.51 511.323 954.361 507.865C955.211 504.408 954.848 500.763 953.33 497.542C951.813 494.321 949.234 491.719 946.026 490.174C942.818 488.629 939.176 488.233 935.711 489.054C932.247 489.875 929.169 491.863 926.996 494.683L933.915 505.097L924.461 499.569C923.728 501.922 923.571 504.417 924.004 506.843V506.843Z" fill="#FFAB40"/>
<path d="M924.643 504.786C925.26 508.292 927.063 511.481 929.751 513.816C932.439 516.151 935.848 517.491 939.407 517.611C942.966 517.731 946.457 516.623 949.297 514.474C952.136 512.325 954.149 509.265 955 505.808C955.851 502.35 955.487 498.705 953.97 495.484C952.452 492.263 949.873 489.662 946.665 488.116C943.457 486.571 939.816 486.176 936.351 486.997C932.886 487.818 929.809 489.805 927.636 492.626L934.554 503.039L925.101 497.512C924.368 499.865 924.211 502.359 924.643 504.786V504.786Z" stroke="#3F3D56" stroke-miterlimit="10"/>
<path d="M908.874 547.109C908.874 547.109 922.577 541.739 926.706 538.798C930.836 535.857 947.785 532.346 948.809 537.062C949.834 541.778 969.402 560.519 953.932 560.644C938.461 560.768 917.985 563.182 913.863 560.671C909.741 558.16 908.874 547.109 908.874 547.109Z" fill="black"/>
<path opacity="0.2" d="M954.208 559.002C938.737 559.127 918.261 561.54 914.139 559.029C911 557.117 909.75 550.256 909.331 547.091C909.041 547.103 908.874 547.109 908.874 547.109C908.874 547.109 909.741 558.16 913.863 560.671C917.985 563.182 938.461 560.768 953.932 560.643C958.398 560.607 959.94 559.019 959.855 556.665C959.235 558.087 957.532 558.975 954.208 559.002Z" fill="black"/>
</g>
<defs>
<linearGradient id="paint0_linear" x1="838.1" y1="566.055" x2="838.1" y2="0" gradientUnits="userSpaceOnUse">
<stop stop-color="#808080" stop-opacity="0.25"/>
<stop offset="0.53514" stop-color="#808080" stop-opacity="0.12"/>
<stop offset="1" stop-color="#808080" stop-opacity="0.1"/>
</linearGradient>
<clipPath id="clip0">
<rect width="988.734" height="579.5" fill="white"/>
</clipPath>
</defs>
</svg>
