<svg width="732" height="787" viewBox="0 0 732 787" fill="none" xmlns="http://www.w3.org/2000/svg">
<g clip-path="url(#clip0)">
<path d="M135.01 133.698L164.345 102.895C164.345 102.895 196.615 54.4916 220.083 67.6926C243.552 80.8937 186.347 111.696 186.347 111.696L157.011 160.1L135.01 133.698Z" fill="#A0616A"/>
<path d="M42.6029 730.678C42.6029 730.678 20.6011 773.215 36.7357 776.148C52.8704 779.082 132.077 783.482 133.543 779.082C135.01 774.682 146.744 760.014 137.944 754.147C129.143 748.28 93.9402 743.879 93.9402 743.879L82.206 732.145L42.6029 730.678Z" fill="black"/>
<path d="M30.8684 315.579C30.8684 315.579 -16.0686 374.25 22.0677 434.388L30.8684 535.596C30.8684 535.596 14.7337 674.941 35.2687 721.878L38.2022 738.012H89.5396L76.3386 614.802C76.3386 614.802 77.8054 600.135 82.2057 597.201C86.6061 594.267 158.478 435.855 158.478 435.855C158.478 435.855 146.744 413.853 151.145 409.453C155.545 405.053 146.744 317.046 142.344 314.112C137.944 311.178 30.8684 315.579 30.8684 315.579Z" fill="black"/>
<path d="M114.475 717.477L120.342 751.213L63.1382 748.28L70.4722 711.61L114.475 717.477Z" fill="#A0616A"/>
<path d="M104.208 119.03C128.51 119.03 148.211 99.329 148.211 75.0265C148.211 50.7241 128.51 31.0231 104.208 31.0231C79.9051 31.0231 60.2041 50.7241 60.2041 75.0265C60.2041 99.329 79.9051 119.03 104.208 119.03Z" fill="#A0616A"/>
<path d="M64.6045 82.3605L60.2041 135.165L107.141 157.166C107.141 157.166 99.0738 108.029 104.941 94.8281L64.6045 82.3605Z" fill="#A0616A"/>
<path d="M113.008 154.233L108.608 136.631L48.4698 114.63C48.4698 114.63 42.6026 114.63 44.0694 124.897C45.5362 135.165 45.5362 133.698 45.5362 133.698C45.5362 133.698 25.0012 142.498 23.5345 157.166C22.0677 171.834 -1.40082 176.234 0.0659574 198.236C1.53274 220.238 8.86665 231.972 8.86665 231.972C8.86665 231.972 1.53273 249.574 13.267 259.841C13.267 259.841 25.0012 280.376 19.1341 295.044C13.267 309.712 5.93313 334.647 22.0677 330.247C38.2023 325.846 149.678 318.512 149.678 318.512C149.678 318.512 165.812 258.374 148.211 236.373C148.211 236.373 148.211 223.172 135.01 196.769C121.809 170.367 113.008 154.233 113.008 154.233Z" fill="#FFAB40"/>
<path d="M35.2686 319.979C35.2686 319.979 54.3367 400.652 77.8053 409.453C77.8053 409.453 82.2056 468.124 107.141 465.191C132.076 462.257 107.141 409.453 107.141 409.453L79.272 308.245L35.2686 319.979Z" fill="#A0616A"/>
<path d="M110.075 158.633C110.075 158.633 132.076 123.43 137.944 129.297C143.811 135.165 173.146 152.766 171.68 164.5C170.213 176.234 157.012 176.234 157.012 176.234L126.209 199.703L110.075 158.633Z" fill="#FFAB40"/>
<path d="M140.877 421.187L158.478 433.84L170.213 559.065C170.213 559.065 127.676 729.211 115.942 730.678C104.207 732.145 55.8036 732.145 57.2704 727.745C58.7372 723.344 66.0711 705.743 66.0711 701.343C66.0711 696.942 81.3689 661.752 81.3689 661.752L101.274 579.6L96.8736 515.061L140.877 421.187Z" fill="black"/>
<path d="M118.875 739.479C118.875 739.479 57.2705 720.411 54.3369 724.811C51.4034 729.211 31.8361 773.561 59.2211 778.522C86.6061 783.482 184.881 792.283 184.881 779.082C184.881 765.881 181.947 757.08 173.146 757.08C164.346 757.08 124.742 738.012 121.809 733.612C118.875 729.211 118.875 739.479 118.875 739.479Z" fill="black"/>
<path d="M62.4829 77.9189C60.651 74.149 64.7122 70.0458 68.3592 72.1116L68.4367 72.1561C69.7149 72.9328 70.7361 74.0688 71.3726 75.4223C72.0091 76.7758 72.2327 78.2868 72.0156 79.7666C77.3051 74.4889 73.4068 63.9047 79.1219 59.0912C81.7672 56.8632 86.0613 56.373 87.4203 53.1926C88.2114 51.3411 87.6735 49.1464 88.3709 47.2576C89.4064 44.4529 92.7147 43.2817 95.6718 42.8407C104.971 41.454 114.376 43.8137 123.482 46.1552C126.83 47.0161 130.351 47.9728 132.79 50.4232C135.358 53.0041 136.252 56.7541 137.827 60.0372C139.402 63.3203 149.733 63.0235 153.345 62.5589C154.6 58.9925 145.327 58.7236 144.57 55.0192C142.501 44.8939 149.706 34.127 146.172 24.4157C144.042 18.564 138.478 14.6904 132.877 11.9697C117.316 4.48927 99.5523 2.97345 82.9489 7.70924C81.2589 8.08231 79.6797 8.84591 78.3377 9.93888C76.206 11.929 75.8108 15.1242 74.3911 17.6716C71.1564 23.4757 63.4848 24.8552 58.3118 29.0255C50.4774 35.3415 49.5942 46.7458 49.3405 56.8059C49.2127 61.8722 49.1226 67.1365 51.1977 71.7601C53.2728 76.3837 58.1902 80.1512 63.1647 79.1828C62.9292 78.8002 62.7033 78.3725 62.4829 77.9189Z" fill="black"/>
<path d="M70.1358 172.926C64.4578 168.986 57.6337 167.039 50.7311 167.389C43.8285 167.74 37.2369 170.369 31.9876 174.865C21.8786 183.456 11.0038 195.763 11.8 208.504C13.2668 231.972 22.0675 328.78 33.8018 330.247C45.536 331.713 88.0727 319.979 88.0727 312.645C88.0727 305.311 77.8053 296.511 77.8053 296.511L90.2718 221.711C93.3525 203.227 86.002 184.343 70.7939 173.395C70.5761 173.238 70.3568 173.082 70.1358 172.926Z" fill="#FFAB40"/>
<g opacity="0.5">
<path opacity="0.5" d="M304.009 181.717C345.721 181.717 379.535 147.903 379.535 106.191C379.535 64.4792 345.721 30.6652 304.009 30.6652C262.297 30.6652 228.483 64.4792 228.483 106.191C228.483 147.903 262.297 181.717 304.009 181.717Z" fill="url(#paint0_linear)"/>
</g>
<path d="M304.156 179.642C344.989 179.642 378.09 146.541 378.09 105.708C378.09 64.876 344.989 31.7748 304.156 31.7748C263.324 31.7748 230.223 64.876 230.223 105.708C230.223 146.541 263.324 179.642 304.156 179.642Z" fill="#F5F5F5"/>
<path d="M344.829 112.994C344.829 137.587 327.158 149.69 304.216 149.69C281.273 149.69 261.747 137.587 261.747 112.994C261.747 88.4009 280.346 68.4641 303.288 68.4641C326.23 68.4641 344.829 88.4009 344.829 112.994Z" fill="black"/>
<path d="M304.216 179.934C318.662 179.957 332.796 175.728 344.855 167.772C342.131 152.884 331.764 152.035 331.764 152.035H274.598C274.598 152.035 264.815 152.838 261.759 166.534C274.189 175.277 289.02 179.958 304.216 179.934V179.934Z" fill="#AEEA00"/>
<path opacity="0.1" d="M291.923 133.874H314.789V152.804C314.789 155.667 313.652 158.413 311.627 160.438C309.602 162.462 306.857 163.6 303.993 163.6H302.718C299.855 163.6 297.109 162.462 295.085 160.438C293.06 158.413 291.923 155.667 291.923 152.804V133.874H291.923Z" fill="black"/>
<path d="M293.982 133.027H312.729C313.276 133.027 313.799 133.244 314.186 133.63C314.572 134.016 314.789 134.54 314.789 135.087V151.957C314.789 154.821 313.652 157.566 311.627 159.591C309.602 161.616 306.857 162.753 303.993 162.753H302.718C299.855 162.753 297.109 161.616 295.085 159.591C293.06 157.566 291.923 154.821 291.923 151.957V135.087C291.923 134.54 292.14 134.016 292.526 133.63C292.912 133.244 293.436 133.027 293.982 133.027V133.027Z" fill="#FDA57D"/>
<path opacity="0.1" d="M291.965 142.508C299.335 145.261 307.447 145.284 314.831 142.571V139.762H291.965V142.508Z" fill="black"/>
<path d="M303.441 144.039C321.542 144.039 336.215 129.365 336.215 111.264C336.215 93.1632 321.542 78.4895 303.441 78.4895C285.34 78.4895 270.666 93.1632 270.666 111.264C270.666 129.365 285.34 144.039 303.441 144.039Z" fill="#FDA57D"/>
<path opacity="0.1" d="M265.664 113.407C265.664 113.407 286.074 110.933 301.536 91.1415C301.536 91.1415 321.945 113.613 336.17 111.139C336.17 111.139 344.416 102.48 336.17 93.8215C327.924 85.1629 321.533 74.2365 310.606 75.6796C299.68 77.1227 286.28 77.7412 280.507 82.8952C274.735 88.0491 265.664 113.407 265.664 113.407Z" fill="black"/>
<path d="M265.664 112.994C265.664 112.994 286.074 110.52 301.536 90.7292C301.536 90.7292 321.945 113.2 336.17 110.727C336.17 110.727 344.416 102.068 336.17 93.4093C327.924 84.7507 321.533 73.8243 310.606 75.2674C299.68 76.7105 286.28 77.329 280.507 82.4829C274.735 87.6369 265.664 112.994 265.664 112.994Z" fill="black"/>
<path d="M270.653 116.95C272.337 116.95 273.702 114.39 273.702 111.233C273.702 108.076 272.337 105.516 270.653 105.516C268.969 105.516 267.604 108.076 267.604 111.233C267.604 114.39 268.969 116.95 270.653 116.95Z" fill="#FDA57D"/>
<path d="M336.211 116.95C337.895 116.95 339.26 114.39 339.26 111.233C339.26 108.076 337.895 105.516 336.211 105.516C334.527 105.516 333.162 108.076 333.162 111.233C333.162 114.39 334.527 116.95 336.211 116.95Z" fill="#FDA57D"/>
<g opacity="0.5">
<path opacity="0.5" d="M623.863 187.104C665.575 187.104 699.389 153.29 699.389 111.578C699.389 69.8664 665.575 36.0524 623.863 36.0524C582.152 36.0524 548.337 69.8664 548.337 111.578C548.337 153.29 582.152 187.104 623.863 187.104Z" fill="url(#paint1_linear)"/>
</g>
<path d="M624.01 185.029C664.842 185.029 697.944 151.928 697.944 111.096C697.944 70.2631 664.842 37.1619 624.01 37.1619C583.177 37.1619 550.076 70.2631 550.076 111.096C550.076 151.928 583.177 185.029 624.01 185.029Z" fill="#F5F5F5"/>
<path d="M624.069 185.321C638.516 185.344 652.65 181.115 664.709 173.16C661.985 158.271 651.617 157.422 651.617 157.422H594.452C594.452 157.422 584.669 158.225 581.613 171.921C594.042 180.664 608.873 185.345 624.069 185.321V185.321Z" fill="#AEEA00"/>
<path d="M623.295 145.224C643.004 145.224 658.981 129.246 658.981 109.538C658.981 89.8286 643.004 73.8513 623.295 73.8513C603.586 73.8513 587.608 89.8286 587.608 109.538C587.608 129.246 603.586 145.224 623.295 145.224Z" fill="#72351C"/>
<path opacity="0.1" d="M611.776 139.261H634.642V158.191C634.642 161.055 633.505 163.8 631.481 165.825C629.456 167.85 626.71 168.987 623.847 168.987H622.572C619.709 168.987 616.963 167.85 614.938 165.825C612.914 163.8 611.776 161.055 611.776 158.191V139.261Z" fill="black"/>
<path d="M613.836 138.414H632.583C633.129 138.414 633.653 138.631 634.039 139.017C634.425 139.404 634.642 139.927 634.642 140.474V157.344C634.642 160.208 633.505 162.953 631.481 164.978C629.456 167.003 626.71 168.14 623.847 168.14H622.572C619.709 168.14 616.963 167.003 614.938 164.978C612.914 162.953 611.776 160.208 611.776 157.344V140.474C611.776 139.927 611.993 139.404 612.38 139.017C612.766 138.631 613.29 138.414 613.836 138.414Z" fill="#FDA57D"/>
<path opacity="0.1" d="M611.819 147.895C619.188 150.649 627.3 150.671 634.685 147.958V145.149H611.819V147.895Z" fill="black"/>
<path d="M623.294 149.426C641.395 149.426 656.069 134.752 656.069 116.651C656.069 98.5505 641.395 83.8767 623.294 83.8767C605.193 83.8767 590.52 98.5505 590.52 116.651C590.52 134.752 605.193 149.426 623.294 149.426Z" fill="#FDA57D"/>
<path opacity="0.1" d="M599.949 86.8392C599.949 86.8392 613.761 114.877 652.725 98.5902L643.654 84.3653L627.574 78.5929L599.949 86.8392Z" fill="black"/>
<path d="M599.949 86.427C599.949 86.427 613.761 114.464 652.725 98.178L643.654 83.9531L627.574 78.1807L599.949 86.427Z" fill="#72351C"/>
<path d="M599.826 84.5328C600.757 81.6496 602.367 79.0319 604.519 76.8996C610.967 70.527 621.534 69.1816 626.955 61.9154C627.25 62.4295 627.435 62.9997 627.496 63.5893C627.557 64.1789 627.494 64.7748 627.311 65.3386C627.128 65.9024 626.829 66.4215 626.433 66.8626C626.037 67.3037 625.553 67.6569 625.012 67.8995C630.199 67.8659 636.225 67.4113 639.16 63.1349C639.886 64.8245 640.117 66.6854 639.827 68.5014C639.537 70.3173 638.738 72.0136 637.522 73.3931C642.125 73.6021 647.037 76.7263 647.335 81.3249C647.533 84.3885 645.612 87.2891 643.095 89.046C640.479 90.6697 637.57 91.7652 634.533 92.2706C625.782 94.2001 594.116 102.287 599.826 84.5328Z" fill="#72351C"/>
<path d="M656.068 116.938H655.199L638.294 131.988C622.008 124.36 610.05 131.988 610.05 131.988L592.321 117.557L590.533 117.781C590.776 126.383 594.391 134.545 600.6 140.504C606.808 146.462 615.111 149.74 623.716 149.63C632.32 149.519 640.536 146.028 646.589 139.912C652.642 133.795 656.047 125.544 656.068 116.938V116.938ZM623.245 137.76C616.869 137.76 611.7 136.468 611.7 134.874C611.7 133.28 616.869 131.988 623.245 131.988C629.621 131.988 634.789 133.28 634.789 134.874C634.789 136.468 629.621 137.76 623.245 137.76V137.76Z" fill="#72351C"/>
<path d="M590.507 122.337C592.191 122.337 593.556 119.777 593.556 116.62C593.556 113.463 592.191 110.904 590.507 110.904C588.823 110.904 587.458 113.463 587.458 116.62C587.458 119.777 588.823 122.337 590.507 122.337Z" fill="#FDA57D"/>
<path d="M656.065 122.337C657.749 122.337 659.114 119.777 659.114 116.62C659.114 113.463 657.749 110.904 656.065 110.904C654.381 110.904 653.016 113.463 653.016 116.62C653.016 119.777 654.381 122.337 656.065 122.337Z" fill="#FDA57D"/>
<g opacity="0.5">
<path opacity="0.5" d="M463.945 311.014C505.657 311.014 539.471 277.2 539.471 235.488C539.471 193.776 505.657 159.962 463.945 159.962C422.234 159.962 388.419 193.776 388.419 235.488C388.419 277.2 422.234 311.014 463.945 311.014Z" fill="url(#paint2_linear)"/>
</g>
<path d="M463.945 309.009C504.778 309.009 537.879 275.908 537.879 235.076C537.879 194.243 504.778 161.142 463.945 161.142C423.113 161.142 390.012 194.243 390.012 235.076C390.012 275.908 423.113 309.009 463.945 309.009Z" fill="#F5F5F5"/>
<path d="M435.091 235.734C435.091 235.734 426.707 277.029 422.133 274.743C422.133 274.743 466.256 312.853 505.213 274.743C505.213 274.743 498.354 245.643 488.445 235.734H435.091Z" fill="black"/>
<path d="M464.152 309.231C478.598 309.254 492.732 305.024 504.791 297.069C502.067 282.181 491.7 281.332 491.7 281.332H434.534C434.534 281.332 424.751 282.135 421.695 295.831C434.125 304.574 448.956 309.255 464.152 309.231V309.231Z" fill="#AEEA00"/>
<path d="M463.377 266.222C481.478 266.222 496.152 251.548 496.152 233.447C496.152 215.346 481.478 200.672 463.377 200.672C445.276 200.672 430.602 215.346 430.602 233.447C430.602 251.548 445.276 266.222 463.377 266.222Z" fill="black"/>
<path opacity="0.1" d="M451.859 263.171H474.725V282.101C474.725 284.964 473.588 287.71 471.563 289.735C469.539 291.759 466.793 292.897 463.93 292.897H462.654C459.791 292.897 457.045 291.759 455.021 289.735C452.996 287.71 451.859 284.964 451.859 282.101V263.171V263.171Z" fill="black"/>
<path d="M453.918 262.324H472.665C473.212 262.324 473.736 262.541 474.122 262.927C474.508 263.313 474.725 263.837 474.725 264.383V281.254C474.725 284.117 473.588 286.863 471.563 288.888C469.539 290.912 466.793 292.05 463.93 292.05H462.654C459.791 292.05 457.045 290.912 455.021 288.888C452.996 286.863 451.859 284.117 451.859 281.254V264.383C451.859 263.837 452.076 263.313 452.462 262.927C452.848 262.541 453.372 262.324 453.918 262.324H453.918Z" fill="#BE7C5E"/>
<path opacity="0.1" d="M451.901 271.805C459.271 274.558 467.383 274.581 474.767 271.868V269.059H451.901V271.805Z" fill="black"/>
<path d="M463.377 273.336C481.478 273.336 496.152 258.662 496.152 240.561C496.152 222.46 481.478 207.786 463.377 207.786C445.276 207.786 430.602 222.46 430.602 240.561C430.602 258.662 445.276 273.336 463.377 273.336Z" fill="#BE7C5E"/>
<path d="M432.042 228.112H494.542C494.542 228.112 489.207 202.874 465.578 204.483C441.95 206.093 432.042 228.112 432.042 228.112Z" fill="black"/>
<path d="M431.279 244.88C432.963 244.88 434.328 242.321 434.328 239.164C434.328 236.007 432.963 233.447 431.279 233.447C429.595 233.447 428.23 236.007 428.23 239.164C428.23 242.321 429.595 244.88 431.279 244.88Z" fill="#BE7C5E"/>
<path d="M495.305 244.88C496.988 244.88 498.353 242.321 498.353 239.164C498.353 236.007 496.988 233.447 495.305 233.447C493.621 233.447 492.256 236.007 492.256 239.164C492.256 242.321 493.621 244.88 495.305 244.88Z" fill="#BE7C5E"/>
<path opacity="0.1" d="M431 226.702H493.501C493.501 226.702 488.165 201.465 464.537 203.074C440.909 204.683 431 226.702 431 226.702Z" fill="black"/>
<path d="M463.946 166.649C477.561 166.649 490.87 170.686 502.19 178.251C513.511 185.815 522.334 196.566 527.544 209.144C532.755 221.723 534.118 235.564 531.462 248.918C528.806 262.271 522.249 274.537 512.622 284.164C502.995 293.792 490.729 300.348 477.375 303.004C464.022 305.66 450.181 304.297 437.602 299.087C425.024 293.876 414.272 285.053 406.708 273.733C399.144 262.412 395.107 249.103 395.107 235.488C395.107 226.448 396.888 217.496 400.347 209.144C403.807 200.793 408.877 193.204 415.269 186.812C421.662 180.419 429.25 175.349 437.602 171.889C445.954 168.43 454.906 166.649 463.946 166.649V166.649ZM463.946 149.649C446.968 149.649 430.372 154.684 416.256 164.116C402.14 173.548 391.138 186.954 384.641 202.639C378.144 218.324 376.444 235.583 379.756 252.234C383.068 268.885 391.244 284.18 403.249 296.185C415.253 308.19 430.548 316.365 447.199 319.677C463.851 322.989 481.11 321.289 496.795 314.793C512.48 308.296 525.886 297.293 535.318 283.177C544.75 269.061 549.784 252.465 549.784 235.488C549.759 212.73 540.707 190.911 524.614 174.819C508.522 158.727 486.704 149.675 463.946 149.649V149.649Z" fill="#CCCCCC"/>
<path d="M471.359 129.582H451.237V150.763H471.359V129.582Z" fill="#CCCCCC"/>
<path d="M507.245 138.164L496.335 156.319L513.583 166.683L524.493 148.527L507.245 138.164Z" fill="#CCCCCC"/>
<path d="M550.106 172.852L531.58 183.121L541.335 200.72L559.861 190.451L550.106 172.852Z" fill="#CCCCCC"/>
<path d="M542.537 269.255L531.874 286.319L549.836 297.543L560.499 280.479L542.537 269.255Z" fill="#CCCCCC"/>
<path d="M377.785 172.852L368.03 190.451L386.555 200.72L396.311 183.121L377.785 172.852Z" fill="#CCCCCC"/>
<path d="M385.354 269.255L367.392 280.479L378.055 297.543L396.017 286.319L385.354 269.255Z" fill="#CCCCCC"/>
<path d="M420.646 138.163L403.398 148.527L414.308 166.683L431.556 156.319L420.646 138.163Z" fill="#CCCCCC"/>
<path d="M471.359 320.213H451.237V341.394H471.359V320.213Z" fill="#CCCCCC"/>
<path d="M513.583 304.293L496.335 314.656L507.245 332.812L524.493 322.449L513.583 304.293Z" fill="#CCCCCC"/>
<path d="M414.308 304.293L403.398 322.449L420.646 332.812L431.556 314.657L414.308 304.293Z" fill="#CCCCCC"/>
<path d="M380.28 227.016H355.921V245.019H380.28V227.016Z" fill="#CCCCCC"/>
<path d="M547.611 245.019H571.969V227.015H547.611V245.019Z" fill="#CCCCCC"/>
<path d="M623.863 42.7394C637.478 42.7394 650.787 46.7767 662.108 54.3408C673.428 61.9049 682.252 72.656 687.462 85.2346C692.672 97.8133 694.035 111.654 691.379 125.008C688.723 138.361 682.167 150.627 672.54 160.254C662.912 169.882 650.646 176.438 637.293 179.094C623.94 181.75 610.098 180.387 597.52 175.177C584.941 169.967 574.19 161.143 566.626 149.823C559.062 138.502 555.025 125.193 555.025 111.578C555.025 93.321 562.277 75.8116 575.187 62.9018C588.097 49.992 605.606 42.7394 623.863 42.7394V42.7394ZM623.863 25.7394C606.886 25.7394 590.29 30.7737 576.174 40.2058C562.058 49.6379 551.056 63.0441 544.559 78.7291C538.062 94.414 536.362 111.673 539.674 128.324C542.986 144.976 551.161 160.271 563.166 172.275C575.171 184.28 590.466 192.455 607.117 195.767C623.768 199.08 641.027 197.38 656.712 190.883C672.397 184.386 685.803 173.384 695.236 159.268C704.668 145.152 709.702 128.555 709.702 111.578C709.676 88.8202 700.624 67.0017 684.532 50.9094C668.44 34.8171 646.621 25.7651 623.863 25.7394V25.7394Z" fill="#CCCCCC"/>
<path d="M631.276 5.67249H611.154V26.8536H631.276V5.67249Z" fill="#CCCCCC"/>
<path d="M667.162 14.2538L656.253 32.4095L673.501 42.7732L684.41 24.6174L667.162 14.2538Z" fill="#CCCCCC"/>
<path d="M710.024 48.9424L691.498 59.2112L701.253 76.8104L719.779 66.5415L710.024 48.9424Z" fill="#CCCCCC"/>
<path d="M702.455 145.345L691.792 162.409L709.754 173.634L720.417 156.569L702.455 145.345Z" fill="#CCCCCC"/>
<path d="M537.703 48.9423L527.947 66.5415L546.473 76.8103L556.228 59.2111L537.703 48.9423Z" fill="#CCCCCC"/>
<path d="M545.272 145.345L527.309 156.569L537.972 173.634L555.935 162.409L545.272 145.345Z" fill="#CCCCCC"/>
<path d="M580.564 14.2538L563.316 24.6174L574.225 42.7732L591.473 32.4096L580.564 14.2538Z" fill="#CCCCCC"/>
<path d="M631.276 196.303H611.154V217.484H631.276V196.303Z" fill="#CCCCCC"/>
<path d="M673.504 180.382L656.256 190.746L667.165 208.902L684.413 198.538L673.504 180.382Z" fill="#CCCCCC"/>
<path d="M574.225 180.383L563.316 198.539L580.564 208.903L591.473 190.747L574.225 180.383Z" fill="#CCCCCC"/>
<path d="M540.198 103.106H515.839V121.11H540.198V103.106Z" fill="#CCCCCC"/>
<path d="M707.529 121.11H731.887V103.106H707.529V121.11Z" fill="#CCCCCC"/>
<path d="M303.984 37.4434C304.793 37.4434 305.603 37.4574 306.416 37.4856C324.451 38.1124 341.519 45.7963 353.945 58.8829C366.371 71.9696 373.162 89.4123 372.854 107.456C372.547 125.5 365.166 142.701 352.302 155.357C339.437 168.012 322.117 175.11 304.071 175.122C303.263 175.122 302.452 175.108 301.639 175.08C283.604 174.453 266.536 166.769 254.11 153.683C241.684 140.596 234.894 123.153 235.201 105.11C235.509 87.0662 242.889 69.8649 255.754 57.2091C268.618 44.5534 285.938 37.4554 303.984 37.4434V37.4434ZM303.99 20.4434V37.4434L303.988 20.4434C281.484 20.4538 259.883 29.3017 243.838 45.0817C227.793 60.8618 218.587 82.3118 218.202 104.813C217.816 127.314 226.283 149.067 241.778 165.387C257.274 181.707 278.559 191.289 301.05 192.07C302.053 192.105 303.07 192.122 304.071 192.122C326.575 192.111 348.175 183.263 364.219 167.482C380.264 151.702 389.469 130.252 389.854 107.751C390.239 85.25 381.772 63.4978 366.277 47.1781C350.781 30.8584 329.497 21.2766 307.006 20.4958C306.002 20.461 304.987 20.4434 303.99 20.4434V20.4434Z" fill="#CCCCCC"/>
<path d="M295.001 5.58876e-05L294.266 21.1685L314.376 21.8666L315.111 0.698179L295.001 5.58876e-05Z" fill="#CCCCCC"/>
<path d="M350.679 10.5209L339.146 28.2872L356.024 39.2431L367.557 21.4768L350.679 10.5209Z" fill="#CCCCCC"/>
<path d="M392.309 46.674L373.438 56.2939L382.577 74.221L401.448 64.6011L392.309 46.674Z" fill="#CCCCCC"/>
<path d="M381.4 142.756L370.151 159.44L387.714 171.281L398.962 154.597L381.4 142.756Z" fill="#CCCCCC"/>
<path d="M220.093 40.6954L209.732 57.9456L227.89 68.8509L238.251 51.6008L220.093 40.6954Z" fill="#CCCCCC"/>
<path d="M224.312 137.303L205.971 147.897L216.036 165.321L234.377 154.727L224.312 137.303Z" fill="#CCCCCC"/>
<path d="M264.131 7.51482L246.534 17.2738L256.807 35.7971L274.404 26.0382L264.131 7.51482Z" fill="#CCCCCC"/>
<path d="M288.387 190.516L287.652 211.684L307.762 212.382L308.497 191.214L288.387 190.516Z" fill="#CCCCCC"/>
<path d="M351.249 176.769L333.651 186.528L343.924 205.051L361.521 195.292L351.249 176.769Z" fill="#CCCCCC"/>
<path d="M252.032 173.324L240.5 191.091L257.378 202.047L268.91 184.28L252.032 173.324Z" fill="#CCCCCC"/>
<path d="M220.706 94.9128L196.363 94.0677L195.738 112.061L220.082 112.906L220.706 94.9128Z" fill="#CCCCCC"/>
<path d="M387.312 118.711L411.656 119.557L412.28 101.563L387.937 100.718L387.312 118.711Z" fill="#CCCCCC"/>
</g>
<defs>
<linearGradient id="paint0_linear" x1="304.009" y1="181.717" x2="304.009" y2="30.6652" gradientUnits="userSpaceOnUse">
<stop stop-color="#808080" stop-opacity="0.25"/>
<stop offset="0.53514" stop-color="#808080" stop-opacity="0.12"/>
<stop offset="1" stop-color="#808080" stop-opacity="0.1"/>
</linearGradient>
<linearGradient id="paint1_linear" x1="94783.9" y1="28298.4" x2="94783.9" y2="5481.82" gradientUnits="userSpaceOnUse">
<stop stop-color="#808080" stop-opacity="0.25"/>
<stop offset="0.53514" stop-color="#808080" stop-opacity="0.12"/>
<stop offset="1" stop-color="#808080" stop-opacity="0.1"/>
</linearGradient>
<linearGradient id="paint2_linear" x1="70468.2" y1="47139.1" x2="70468.2" y2="24322.5" gradientUnits="userSpaceOnUse">
<stop stop-color="#808080" stop-opacity="0.25"/>
<stop offset="0.53514" stop-color="#808080" stop-opacity="0.12"/>
<stop offset="1" stop-color="#808080" stop-opacity="0.1"/>
</linearGradient>
<clipPath id="clip0">
<rect width="731.887" height="786.021" fill="white"/>
</clipPath>
</defs>
</svg>
