<svg width="984" height="577" viewBox="0 0 984 577" fill="none" xmlns="http://www.w3.org/2000/svg">
<g clip-path="url(#clip0)">
<path d="M324.033 559.813H0V562.053H324.033V559.813Z" fill="black"/>
<path d="M204.531 180.324C205.468 183.333 206.299 186.203 206.997 188.67L206.562 188.826C206.019 186.54 205.328 183.58 204.531 180.324ZM178.512 107.055L178.381 107.129L178.504 107.014L178.512 107.055Z" fill="url(#paint0_linear)"/>
<path d="M146.623 530.416C141.73 531.987 138.055 562.067 138.055 562.067L168.48 569.583C168.48 569.583 189.819 572.732 199.959 569.583C210.098 566.434 209.752 557.692 195.238 556.294C180.725 554.897 170.405 536.189 170.405 536.189C170.405 536.189 151.516 528.846 146.623 530.416Z" fill="black"/>
<path d="M110.918 536.534C110.992 538.944 110.59 541.344 109.734 543.598C107.282 550.971 106.244 558.741 106.675 566.499C106.741 567.426 106.815 568.396 106.897 569.41C107.95 581.474 137.134 573.966 139.074 572.56C141.015 571.154 133.318 536.534 133.318 536.534C133.318 536.534 110.433 531.641 110.918 536.534Z" fill="black"/>
<path d="M142.865 98.2312C142.873 98.2409 142.879 98.2521 142.882 98.2641C143.498 99.7771 166.416 155.974 162.272 137.595C162.148 137.049 162.066 136.493 162.025 135.934C161.672 131.42 163.801 126.453 167.23 121.519C169.416 118.436 171.844 115.532 174.491 112.836C175.815 111.462 177.189 110.122 178.578 108.823C182.394 105.246 186.366 101.973 189.885 99.2427C196.209 94.3088 201.093 91.1758 201.093 91.1758C201.093 91.1758 156.771 39.5015 159.912 61.7944C160.775 67.9042 164.377 73.9976 161.935 79.6552C160.332 83.2397 158.06 86.4856 155.241 89.2187C153.015 91.4201 150.59 93.4104 147.996 95.164C146.886 95.9123 145.883 96.5372 145.069 97.0142C143.712 97.8118 142.865 98.2312 142.865 98.2312Z" fill="#FFB9B9"/>
<path d="M294.845 164.872C294.845 164.872 296.589 163.902 299.22 162.743C306.958 159.371 322.409 154.437 324.358 168.022C326.981 186.244 309.606 184.148 309.606 184.148C306.171 182.844 302.652 181.775 299.072 180.949C297.312 180.474 295.475 180.359 293.669 180.612L294.845 164.872Z" fill="#FFB9B9"/>
<path d="M292.198 182.125H297.428C300.47 178.013 298.143 162.389 298.143 162.389L293.596 163.211L292.198 182.125Z" fill="#E6E6E6"/>
<path d="M198.733 208.504L199.605 254.488L205.361 276.173C205.361 276.173 208.19 297.158 211.66 295.407C215.13 293.655 229.932 298.638 229.932 298.638L230.631 290.859L225.648 245.139L221.799 222.319C221.799 222.319 219.612 204.393 217.951 193.9C216.29 183.407 202.393 191.721 202.393 191.721L198.733 208.504Z" fill="black"/>
<path d="M215.369 185.693C224.817 183.046 237.012 185.693 237.012 185.693L292.107 186.91C301.942 173.926 295.125 161.731 295.125 161.731C295.125 161.731 268.104 160.67 246.205 157.398C224.307 154.125 209.884 137.859 209.884 137.859L215.369 185.693Z" fill="black"/>
<path opacity="0.1" d="M159.912 61.7952C156.771 39.5022 201.093 91.1766 201.093 91.1766C201.093 91.1766 196.209 94.3096 189.885 99.2435C189.301 99.2846 188.718 99.2846 188.117 99.2846C174.557 99.2846 165.208 90.7983 159.83 79.2859C161.992 74.1629 160.882 68.6205 159.912 61.7952Z" fill="black"/>
<path d="M156.178 68.6757C156.193 60.6463 159.394 52.9511 165.079 47.2804C170.763 41.6097 178.466 38.4272 186.495 38.432C194.525 38.4369 202.224 41.6287 207.901 47.3063C213.579 52.9839 216.771 60.683 216.776 68.7123C216.781 76.7417 213.598 84.4447 207.928 90.1292C202.257 95.8138 194.562 99.015 186.532 99.0296C178.503 99.0443 170.796 95.8712 165.105 90.2075C159.413 84.5437 156.203 76.8524 156.178 68.823C156.178 68.7739 156.178 68.7248 156.178 68.6757Z" fill="#FFB9B9"/>
<path d="M141.237 198.892L142.882 98.232L160.455 107.434L175.035 110.887L178.727 108.733L178.99 108.577L179.59 108.231C179.59 108.231 179.787 108.659 180.166 109.44C183.356 116.191 198.882 149.207 198.553 152.036C198.207 155.177 209.629 194.779 209.629 194.779L204.12 232.286C204.12 232.286 214.571 258.337 211.808 267.958C209.046 277.579 133.688 270.926 133.688 270.926L141.237 198.892Z" fill="#E6E6E6"/>
<path d="M170.667 113.996L176.522 121.512L177.468 123.707C180.775 131.45 182.674 139.72 183.076 148.13V157.883L184.301 236.044L191.036 248.058L192.261 233.19L189.556 149.52L185.88 130.607L183.874 118.625C182.797 116.533 181.86 114.371 181.07 112.154C179.063 106.998 173.899 108.396 173.899 108.396L170.667 113.996Z" fill="#FFAB40"/>
<path d="M144.896 96.5948L145.069 97.0142L146.294 100.024L147.676 103.387C149.296 104.419 150.806 105.615 152.182 106.956C156.853 111.15 163.629 117.893 167.231 121.519C168.752 123.049 169.706 124.019 169.706 124.019C171.49 122.432 173.283 117.128 174.492 112.835C174.689 112.153 174.862 111.495 175.026 110.887C175.635 108.559 176.005 106.882 176.005 106.882C171.424 105.246 160.734 94.7939 155.241 89.2186C153.015 91.42 150.59 93.4103 147.997 95.1639C147.684 94.2923 144.896 96.5948 144.896 96.5948Z" fill="#E6E6E6"/>
<path d="M183.142 110.69C186.571 112.787 192.147 115.517 198.33 115.83C198.33 115.83 211.726 122.918 214.209 147.176C216.693 171.435 227.185 244.349 227.185 244.349C227.185 244.349 236.527 293.515 229.948 298.622L222.605 238.437C222.605 238.437 209.752 203.677 208.823 197.247C208.001 191.392 197.779 159.379 195.987 153.771C195.806 153.245 195.715 152.949 195.715 152.949L185.494 124.044L179.59 108.223C180.717 109.124 181.904 109.949 183.142 110.69Z" fill="black"/>
<path d="M109.734 441.072C109.734 441.072 120.046 369.892 117.25 360.287C114.454 350.683 119.174 279.701 119.174 279.701L120.728 266.387L121.6 258.88L121.97 255.738L123.771 256.289C141.151 261.352 159.003 264.626 177.049 266.058C181.048 266.33 185.067 266.009 188.972 265.104C196.11 263.476 209.908 261.478 212.318 259.768C212.318 259.768 213.14 261.98 214.168 265.598C216.536 273.961 220.105 289.947 217.359 303.564L213.157 331.104C213.157 331.104 211.504 359.169 206.076 375.961L201.274 398.862L194.975 445.545C191.865 457.985 189.615 470.623 188.24 483.372C185.946 504.538 172.847 539.651 172.847 539.651C172.847 539.651 145.003 543.499 144.181 534.059L153.802 460.437L162.716 355C162.716 355 153.053 420.785 147.503 434.954C147.503 434.954 139.806 515.713 137.183 528.155C134.56 540.596 132.816 543.886 132.816 543.886C132.816 543.886 116.551 549.839 109.208 538.82C109.208 538.82 107.111 506.133 105.54 494.415C103.961 482.681 109.734 441.072 109.734 441.072Z" fill="black"/>
<path d="M122.521 281.765L134.034 287.365L120.309 313.243C115.153 308.432 115.762 289.289 115.762 289.289L122.521 281.765Z" fill="#FFB9B9"/>
<path d="M127.472 281.765L132.718 285.876L125.728 296.459L116.198 299.954L115.408 292.956L127.472 281.765Z" fill="#E6E6E6"/>
<g opacity="0.1">
<path opacity="0.1" d="M212.326 259.866C212.299 259.83 212.282 259.788 212.277 259.743C212.129 259.84 211.975 259.928 211.816 260.006L212.326 259.866Z" fill="black"/>
</g>
<path d="M82.6797 296.278C88.9704 303.621 116.395 304.937 116.395 304.937L137.767 271.255L143.531 262.176C143.531 262.176 149.953 257.719 162.025 237.647C174.096 217.574 173.685 202.114 173.019 190.569C172.353 179.024 164.796 145.843 164.796 145.843C164.056 142.492 163.131 139.184 162.025 135.934C159.402 127.662 155.43 116.166 152.182 106.956C151.598 105.295 151.039 103.708 150.504 102.228C149.518 99.4154 154.534 88.7007 154.534 88.7007C152.766 92.2448 141.632 98.075 137.758 100.517C127.315 107.096 112.735 109.793 112.735 109.793C89.2583 113.206 93.5919 137.464 93.5919 137.464C93.5919 137.464 93.3288 231.759 94.776 243.041C96.2233 254.323 82.6797 296.278 82.6797 296.278Z" fill="black"/>
<path opacity="0.1" d="M94.6119 137.456C94.6119 137.456 84.6454 180.743 81.8907 207.493C79.136 234.243 89.4971 251.29 89.4971 251.29L111.659 300.472C119.265 298.515 134.741 282.381 134.741 282.381L112.538 220.872C112.538 220.872 120.77 189.813 125.917 161.205C131.065 132.597 117.423 119.76 117.423 119.76C94.6037 111.109 94.6119 137.456 94.6119 137.456Z" fill="black"/>
<path d="M93.5591 137.456C93.5591 137.456 83.5927 180.743 80.838 207.493C78.0832 234.243 88.4444 251.29 88.4444 251.29L110.647 300.472C118.253 298.515 133.729 282.381 133.729 282.381L111.527 220.872C111.527 220.872 119.766 189.813 124.898 161.205C130.029 132.597 116.378 119.76 116.378 119.76C93.5592 111.109 93.5591 137.456 93.5591 137.456Z" fill="black"/>
<path d="M137.356 290.16L131.238 307.651L124.421 317.001C124.421 317.001 119.314 320.413 118.039 314.032C116.765 307.651 134.033 283.689 134.033 283.689C136.764 282.612 137.356 290.16 137.356 290.16Z" fill="#2F2E41"/>
<path d="M158.444 85.0775C158.444 85.0775 126.786 41.6949 166.651 32.3149C166.651 32.3149 177.976 15.3273 191.891 23.6826C198.721 27.6898 206.513 29.762 214.431 29.6768C221.172 29.6768 227.621 32.3149 226.449 42.8674C224.104 63.9724 211.206 60.455 211.206 60.455C211.206 60.455 176.229 44.7841 175.057 62.3716C173.884 79.9591 158.444 85.0775 158.444 85.0775Z" fill="black"/>
<path d="M531.305 13.6267C535.067 13.6267 538.118 10.5762 538.118 6.81334C538.118 3.05044 535.067 0 531.305 0C527.542 0 524.491 3.05044 524.491 6.81334C524.491 10.5762 527.542 13.6267 531.305 13.6267Z" fill="#E6E6E6"/>
<path d="M565.794 13.6267C569.557 13.6267 572.607 10.5762 572.607 6.81334C572.607 3.05044 569.557 0 565.794 0C562.031 0 558.98 3.05044 558.98 6.81334C558.98 10.5762 562.031 13.6267 565.794 13.6267Z" fill="#E6E6E6"/>
<path d="M600.283 13.6267C604.046 13.6267 607.096 10.5762 607.096 6.81334C607.096 3.05044 604.046 0 600.283 0C596.52 0 593.47 3.05044 593.47 6.81334C593.47 10.5762 596.52 13.6267 600.283 13.6267Z" fill="#E6E6E6"/>
<path d="M634.772 13.6267C638.535 13.6267 641.585 10.5762 641.585 6.81334C641.585 3.05044 638.535 0 634.772 0C631.009 0 627.958 3.05044 627.958 6.81334C627.958 10.5762 631.009 13.6267 634.772 13.6267Z" fill="#E6E6E6"/>
<path d="M669.261 13.6267C673.024 13.6267 676.074 10.5762 676.074 6.81334C676.074 3.05044 673.024 0 669.261 0C665.498 0 662.448 3.05044 662.448 6.81334C662.448 10.5762 665.498 13.6267 669.261 13.6267Z" fill="#E6E6E6"/>
<path d="M531.305 48.5486C535.067 48.5486 538.118 45.4982 538.118 41.7353C538.118 37.9724 535.067 34.922 531.305 34.922C527.542 34.922 524.491 37.9724 524.491 41.7353C524.491 45.4982 527.542 48.5486 531.305 48.5486Z" fill="#E6E6E6"/>
<path d="M565.794 48.5486C569.557 48.5486 572.607 45.4982 572.607 41.7353C572.607 37.9724 569.557 34.922 565.794 34.922C562.031 34.922 558.98 37.9724 558.98 41.7353C558.98 45.4982 562.031 48.5486 565.794 48.5486Z" fill="#E6E6E6"/>
<path d="M600.283 48.5486C604.046 48.5486 607.096 45.4982 607.096 41.7353C607.096 37.9724 604.046 34.922 600.283 34.922C596.52 34.922 593.47 37.9724 593.47 41.7353C593.47 45.4982 596.52 48.5486 600.283 48.5486Z" fill="#E6E6E6"/>
<path d="M634.772 48.5486C638.535 48.5486 641.585 45.4982 641.585 41.7353C641.585 37.9724 638.535 34.922 634.772 34.922C631.009 34.922 627.958 37.9724 627.958 41.7353C627.958 45.4982 631.009 48.5486 634.772 48.5486Z" fill="#AEEA00"/>
<path d="M669.261 48.5486C673.024 48.5486 676.074 45.4982 676.074 41.7353C676.074 37.9724 673.024 34.922 669.261 34.922C665.498 34.922 662.448 37.9724 662.448 41.7353C662.448 45.4982 665.498 48.5486 669.261 48.5486Z" fill="#E6E6E6"/>
<path d="M738.239 48.5486C742.002 48.5486 745.052 45.4982 745.052 41.7353C745.052 37.9724 742.002 34.922 738.239 34.922C734.476 34.922 731.426 37.9724 731.426 41.7353C731.426 45.4982 734.476 48.5486 738.239 48.5486Z" fill="#E6E6E6"/>
<path d="M531.305 83.4706C535.067 83.4706 538.118 80.4201 538.118 76.6572C538.118 72.8943 535.067 69.8439 531.305 69.8439C527.542 69.8439 524.491 72.8943 524.491 76.6572C524.491 80.4201 527.542 83.4706 531.305 83.4706Z" fill="#E6E6E6"/>
<path d="M565.794 83.4706C569.557 83.4706 572.607 80.4201 572.607 76.6572C572.607 72.8943 569.557 69.8439 565.794 69.8439C562.031 69.8439 558.98 72.8943 558.98 76.6572C558.98 80.4201 562.031 83.4706 565.794 83.4706Z" fill="#E6E6E6"/>
<path d="M600.283 83.4706C604.046 83.4706 607.096 80.4201 607.096 76.6572C607.096 72.8943 604.046 69.8439 600.283 69.8439C596.52 69.8439 593.47 72.8943 593.47 76.6572C593.47 80.4201 596.52 83.4706 600.283 83.4706Z" fill="#E6E6E6"/>
<path d="M634.772 83.4706C638.535 83.4706 641.585 80.4201 641.585 76.6572C641.585 72.8943 638.535 69.8439 634.772 69.8439C631.009 69.8439 627.958 72.8943 627.958 76.6572C627.958 80.4201 631.009 83.4706 634.772 83.4706Z" fill="#E6E6E6"/>
<path d="M669.261 83.4706C673.024 83.4706 676.074 80.4201 676.074 76.6572C676.074 72.8943 673.024 69.8439 669.261 69.8439C665.498 69.8439 662.448 72.8943 662.448 76.6572C662.448 80.4201 665.498 83.4706 669.261 83.4706Z" fill="#E6E6E6"/>
<path d="M531.305 118.393C535.067 118.393 538.118 115.342 538.118 111.579C538.118 107.816 535.067 104.766 531.305 104.766C527.542 104.766 524.491 107.816 524.491 111.579C524.491 115.342 527.542 118.393 531.305 118.393Z" fill="#E6E6E6"/>
<path d="M565.794 118.393C569.557 118.393 572.607 115.342 572.607 111.579C572.607 107.816 569.557 104.766 565.794 104.766C562.031 104.766 558.98 107.816 558.98 111.579C558.98 115.342 562.031 118.393 565.794 118.393Z" fill="#E6E6E6"/>
<path d="M600.283 118.393C604.046 118.393 607.096 115.342 607.096 111.579C607.096 107.816 604.046 104.766 600.283 104.766C596.52 104.766 593.47 107.816 593.47 111.579C593.47 115.342 596.52 118.393 600.283 118.393Z" fill="#E6E6E6"/>
<path d="M634.772 118.393C638.535 118.393 641.585 115.342 641.585 111.579C641.585 107.816 638.535 104.766 634.772 104.766C631.009 104.766 627.958 107.816 627.958 111.579C627.958 115.342 631.009 118.393 634.772 118.393Z" fill="#E6E6E6"/>
<path d="M669.261 118.393C673.024 118.393 676.074 115.342 676.074 111.579C676.074 107.816 673.024 104.766 669.261 104.766C665.498 104.766 662.448 107.816 662.448 111.579C662.448 115.342 665.498 118.393 669.261 118.393Z" fill="#E6E6E6"/>
<path d="M703.75 118.393C707.513 118.393 710.563 115.342 710.563 111.579C710.563 107.816 707.513 104.766 703.75 104.766C699.987 104.766 696.937 107.816 696.937 111.579C696.937 115.342 699.987 118.393 703.75 118.393Z" fill="#E6E6E6"/>
<path d="M738.239 118.393C742.002 118.393 745.052 115.342 745.052 111.579C745.052 107.816 742.002 104.766 738.239 104.766C734.476 104.766 731.426 107.816 731.426 111.579C731.426 115.342 734.476 118.393 738.239 118.393Z" fill="#E6E6E6"/>
<path d="M772.728 118.393C776.491 118.393 779.541 115.342 779.541 111.579C779.541 107.816 776.491 104.766 772.728 104.766C768.965 104.766 765.915 107.816 765.915 111.579C765.915 115.342 768.965 118.393 772.728 118.393Z" fill="#E6E6E6"/>
<path d="M807.217 118.393C810.98 118.393 814.031 115.342 814.031 111.579C814.031 107.816 810.98 104.766 807.217 104.766C803.454 104.766 800.404 107.816 800.404 111.579C800.404 115.342 803.454 118.393 807.217 118.393Z" fill="#E6E6E6"/>
<path d="M841.706 118.393C845.469 118.393 848.519 115.342 848.519 111.579C848.519 107.816 845.469 104.766 841.706 104.766C837.943 104.766 834.893 107.816 834.893 111.579C834.893 115.342 837.943 118.393 841.706 118.393Z" fill="#E6E6E6"/>
<path d="M669.261 153.314C673.024 153.314 676.074 150.264 676.074 146.501C676.074 142.738 673.024 139.688 669.261 139.688C665.498 139.688 662.448 142.738 662.448 146.501C662.448 150.264 665.498 153.314 669.261 153.314Z" fill="#E6E6E6"/>
<path d="M703.75 153.314C707.513 153.314 710.563 150.264 710.563 146.501C710.563 142.738 707.513 139.688 703.75 139.688C699.987 139.688 696.937 142.738 696.937 146.501C696.937 150.264 699.987 153.314 703.75 153.314Z" fill="#AEEA00"/>
<path d="M738.239 153.314C742.002 153.314 745.052 150.264 745.052 146.501C745.052 142.738 742.002 139.688 738.239 139.688C734.476 139.688 731.426 142.738 731.426 146.501C731.426 150.264 734.476 153.314 738.239 153.314Z" fill="#E6E6E6"/>
<path d="M772.728 153.314C776.491 153.314 779.541 150.264 779.541 146.501C779.541 142.738 776.491 139.688 772.728 139.688C768.965 139.688 765.915 142.738 765.915 146.501C765.915 150.264 768.965 153.314 772.728 153.314Z" fill="#E6E6E6"/>
<path d="M807.217 153.314C810.98 153.314 814.031 150.264 814.031 146.501C814.031 142.738 810.98 139.688 807.217 139.688C803.454 139.688 800.404 142.738 800.404 146.501C800.404 150.264 803.454 153.314 807.217 153.314Z" fill="#E6E6E6"/>
<path d="M841.706 153.314C845.469 153.314 848.519 150.264 848.519 146.501C848.519 142.738 845.469 139.688 841.706 139.688C837.943 139.688 834.893 142.738 834.893 146.501C834.893 150.264 837.943 153.314 841.706 153.314Z" fill="#E6E6E6"/>
<path d="M669.261 188.236C673.024 188.236 676.074 185.186 676.074 181.423C676.074 177.66 673.024 174.61 669.261 174.61C665.498 174.61 662.448 177.66 662.448 181.423C662.448 185.186 665.498 188.236 669.261 188.236Z" fill="#E6E6E6"/>
<path d="M703.75 188.236C707.513 188.236 710.563 185.186 710.563 181.423C710.563 177.66 707.513 174.61 703.75 174.61C699.987 174.61 696.937 177.66 696.937 181.423C696.937 185.186 699.987 188.236 703.75 188.236Z" fill="#E6E6E6"/>
<path d="M738.239 188.236C742.002 188.236 745.052 185.186 745.052 181.423C745.052 177.66 742.002 174.61 738.239 174.61C734.476 174.61 731.426 177.66 731.426 181.423C731.426 185.186 734.476 188.236 738.239 188.236Z" fill="#E6E6E6"/>
<path d="M772.728 188.236C776.491 188.236 779.541 185.186 779.541 181.423C779.541 177.66 776.491 174.61 772.728 174.61C768.965 174.61 765.915 177.66 765.915 181.423C765.915 185.186 768.965 188.236 772.728 188.236Z" fill="#E6E6E6"/>
<path d="M807.217 188.236C810.98 188.236 814.031 185.186 814.031 181.423C814.031 177.66 810.98 174.61 807.217 174.61C803.454 174.61 800.404 177.66 800.404 181.423C800.404 185.186 803.454 188.236 807.217 188.236Z" fill="#AEEA00"/>
<path d="M841.706 188.236C845.469 188.236 848.519 185.186 848.519 181.423C848.519 177.66 845.469 174.61 841.706 174.61C837.943 174.61 834.893 177.66 834.893 181.423C834.893 185.186 837.943 188.236 841.706 188.236Z" fill="#E6E6E6"/>
<path d="M669.261 223.158C673.024 223.158 676.074 220.108 676.074 216.345C676.074 212.582 673.024 209.532 669.261 209.532C665.498 209.532 662.448 212.582 662.448 216.345C662.448 220.108 665.498 223.158 669.261 223.158Z" fill="#E6E6E6"/>
<path d="M703.75 223.158C707.513 223.158 710.563 220.108 710.563 216.345C710.563 212.582 707.513 209.532 703.75 209.532C699.987 209.532 696.937 212.582 696.937 216.345C696.937 220.108 699.987 223.158 703.75 223.158Z" fill="#E6E6E6"/>
<path d="M738.239 223.158C742.002 223.158 745.052 220.108 745.052 216.345C745.052 212.582 742.002 209.532 738.239 209.532C734.476 209.532 731.426 212.582 731.426 216.345C731.426 220.108 734.476 223.158 738.239 223.158Z" fill="#E6E6E6"/>
<path d="M772.728 223.158C776.491 223.158 779.541 220.108 779.541 216.345C779.541 212.582 776.491 209.532 772.728 209.532C768.965 209.532 765.915 212.582 765.915 216.345C765.915 220.108 768.965 223.158 772.728 223.158Z" fill="#E6E6E6"/>
<path d="M807.217 223.158C810.98 223.158 814.031 220.108 814.031 216.345C814.031 212.582 810.98 209.532 807.217 209.532C803.454 209.532 800.404 212.582 800.404 216.345C800.404 220.108 803.454 223.158 807.217 223.158Z" fill="#E6E6E6"/>
<path d="M841.706 223.158C845.469 223.158 848.519 220.108 848.519 216.345C848.519 212.582 845.469 209.532 841.706 209.532C837.943 209.532 834.893 212.582 834.893 216.345C834.893 220.108 837.943 223.158 841.706 223.158Z" fill="#E6E6E6"/>
<path d="M531.305 258.08C535.067 258.08 538.118 255.03 538.118 251.267C538.118 247.504 535.067 244.454 531.305 244.454C527.542 244.454 524.491 247.504 524.491 251.267C524.491 255.03 527.542 258.08 531.305 258.08Z" fill="#E6E6E6"/>
<path d="M565.794 258.08C569.557 258.08 572.607 255.03 572.607 251.267C572.607 247.504 569.557 244.454 565.794 244.454C562.031 244.454 558.98 247.504 558.98 251.267C558.98 255.03 562.031 258.08 565.794 258.08Z" fill="#E6E6E6"/>
<path d="M600.283 258.08C604.046 258.08 607.096 255.03 607.096 251.267C607.096 247.504 604.046 244.454 600.283 244.454C596.52 244.454 593.47 247.504 593.47 251.267C593.47 255.03 596.52 258.08 600.283 258.08Z" fill="#E6E6E6"/>
<path d="M634.772 258.08C638.535 258.08 641.585 255.03 641.585 251.267C641.585 247.504 638.535 244.454 634.772 244.454C631.009 244.454 627.958 247.504 627.958 251.267C627.958 255.03 631.009 258.08 634.772 258.08Z" fill="#E6E6E6"/>
<path d="M669.261 258.08C673.024 258.08 676.074 255.03 676.074 251.267C676.074 247.504 673.024 244.454 669.261 244.454C665.498 244.454 662.448 247.504 662.448 251.267C662.448 255.03 665.498 258.08 669.261 258.08Z" fill="#E6E6E6"/>
<path d="M703.75 258.08C707.513 258.08 710.563 255.03 710.563 251.267C710.563 247.504 707.513 244.454 703.75 244.454C699.987 244.454 696.937 247.504 696.937 251.267C696.937 255.03 699.987 258.08 703.75 258.08Z" fill="#E6E6E6"/>
<path d="M738.239 258.08C742.002 258.08 745.052 255.03 745.052 251.267C745.052 247.504 742.002 244.454 738.239 244.454C734.476 244.454 731.426 247.504 731.426 251.267C731.426 255.03 734.476 258.08 738.239 258.08Z" fill="#E6E6E6"/>
<path d="M772.728 258.08C776.491 258.08 779.541 255.03 779.541 251.267C779.541 247.504 776.491 244.454 772.728 244.454C768.965 244.454 765.915 247.504 765.915 251.267C765.915 255.03 768.965 258.08 772.728 258.08Z" fill="#E6E6E6"/>
<path d="M807.217 258.08C810.98 258.08 814.031 255.03 814.031 251.267C814.031 247.504 810.98 244.454 807.217 244.454C803.454 244.454 800.404 247.504 800.404 251.267C800.404 255.03 803.454 258.08 807.217 258.08Z" fill="#E6E6E6"/>
<path d="M841.706 258.08C845.469 258.08 848.519 255.03 848.519 251.267C848.519 247.504 845.469 244.454 841.706 244.454C837.943 244.454 834.893 247.504 834.893 251.267C834.893 255.03 837.943 258.08 841.706 258.08Z" fill="#E6E6E6"/>
<path d="M538.114 286.215C538.129 282.453 535.091 279.39 531.329 279.375C527.566 279.359 524.503 282.397 524.488 286.16C524.472 289.923 527.51 292.986 531.273 293.001C535.036 293.016 538.099 289.978 538.114 286.215Z" fill="#E6E6E6"/>
<path d="M565.794 293.002C569.557 293.002 572.607 289.952 572.607 286.189C572.607 282.426 569.557 279.376 565.794 279.376C562.031 279.376 558.98 282.426 558.98 286.189C558.98 289.952 562.031 293.002 565.794 293.002Z" fill="#E6E6E6"/>
<path d="M538.114 321.137C538.129 317.374 535.091 314.312 531.329 314.296C527.566 314.281 524.503 317.319 524.488 321.082C524.472 324.845 527.51 327.908 531.273 327.923C535.036 327.938 538.099 324.9 538.114 321.137Z" fill="#E6E6E6"/>
<path d="M565.794 327.924C569.557 327.924 572.607 324.874 572.607 321.111C572.607 317.348 569.557 314.298 565.794 314.298C562.031 314.298 558.98 317.348 558.98 321.111C558.98 324.874 562.031 327.924 565.794 327.924Z" fill="#E6E6E6"/>
<path d="M634.772 327.924C638.535 327.924 641.585 324.874 641.585 321.111C641.585 317.348 638.535 314.298 634.772 314.298C631.009 314.298 627.958 317.348 627.958 321.111C627.958 324.874 631.009 327.924 634.772 327.924Z" fill="#E6E6E6"/>
<path d="M978.548 80.3839H708.548C707.222 80.3824 705.951 79.8551 705.014 78.9177C704.077 77.9804 703.549 76.7095 703.548 75.3839V8.40834C703.549 7.08274 704.077 5.81186 705.014 4.87451C705.951 3.93717 707.222 3.4099 708.548 3.40834H978.548C979.874 3.4099 981.145 3.93717 982.082 4.87451C983.02 5.81186 983.547 7.08274 983.548 8.40834V75.3839C983.547 76.7095 983.02 77.9804 982.082 78.9177C981.145 79.8551 979.874 80.3824 978.548 80.3839V80.3839ZM708.548 5.40834C707.752 5.40921 706.99 5.72556 706.427 6.28798C705.865 6.8504 705.549 7.61296 705.548 8.40834V75.3839C705.549 76.1793 705.865 76.9419 706.427 77.5043C706.99 78.0667 707.752 78.383 708.548 78.3839H978.548C979.344 78.383 980.106 78.0667 980.669 77.5043C981.231 76.9419 981.548 76.1793 981.548 75.3839V8.40834C981.548 7.61296 981.231 6.8504 980.669 6.28798C980.106 5.72556 979.344 5.40921 978.548 5.40834H708.548Z" fill="#E6E6E6"/>
<path d="M743.548 62.8959C755.146 62.8959 764.548 53.4939 764.548 41.8959C764.548 30.2979 755.146 20.8959 743.548 20.8959C731.95 20.8959 722.548 30.2979 722.548 41.8959C722.548 53.4939 731.95 62.8959 743.548 62.8959Z" fill="#AEEA00"/>
<path d="M792.048 27.8959C791.12 27.8959 790.229 28.2646 789.573 28.921C788.917 29.5774 788.548 30.4676 788.548 31.3959C788.548 32.3241 788.917 33.2144 789.573 33.8708C790.229 34.5271 791.12 34.8959 792.048 34.8959H885.048C885.976 34.8959 886.866 34.5271 887.523 33.8708C888.179 33.2144 888.548 32.3241 888.548 31.3959C888.548 30.4676 888.179 29.5774 887.523 28.921C886.866 28.2646 885.976 27.8959 885.048 27.8959H792.048Z" fill="#E6E6E6"/>
<path d="M792.048 48.8959C791.12 48.8959 790.229 49.2646 789.573 49.921C788.917 50.5774 788.548 51.4676 788.548 52.3959C788.548 53.3241 788.917 54.2144 789.573 54.8708C790.229 55.5271 791.12 55.8959 792.048 55.8959H957.048C957.976 55.8959 958.866 55.5271 959.523 54.8708C960.179 54.2144 960.548 53.3241 960.548 52.3959C960.548 51.4676 960.179 50.5774 959.523 49.921C958.866 49.2646 957.976 48.8959 957.048 48.8959H792.048Z" fill="#E6E6E6"/>
<path d="M631.548 216.384H361.548C360.222 216.382 358.951 215.855 358.014 214.918C357.077 213.98 356.549 212.71 356.548 211.384V144.408C356.549 143.083 357.077 141.812 358.014 140.875C358.951 139.937 360.222 139.41 361.548 139.408H631.548C632.874 139.41 634.145 139.937 635.082 140.875C636.019 141.812 636.547 143.083 636.548 144.408V211.384C636.547 212.71 636.019 213.98 635.082 214.918C634.145 215.855 632.874 216.382 631.548 216.384ZM361.548 141.408C360.752 141.409 359.99 141.726 359.427 142.288C358.865 142.85 358.549 143.613 358.548 144.408V211.384C358.549 212.179 358.865 212.942 359.427 213.504C359.99 214.067 360.752 214.383 361.548 214.384H631.548C632.344 214.383 633.106 214.067 633.669 213.504C634.231 212.942 634.547 212.179 634.548 211.384V144.408C634.547 143.613 634.231 142.85 633.669 142.288C633.106 141.726 632.344 141.409 631.548 141.408H361.548Z" fill="black"/>
<path d="M396.548 198.896C408.146 198.896 417.548 189.494 417.548 177.896C417.548 166.298 408.146 156.896 396.548 156.896C384.95 156.896 375.548 166.298 375.548 177.896C375.548 189.494 384.95 198.896 396.548 198.896Z" fill="#AEEA00"/>
<path d="M445.048 163.896C444.12 163.896 443.229 164.265 442.573 164.921C441.917 165.577 441.548 166.468 441.548 167.396C441.548 168.324 441.917 169.214 442.573 169.871C443.229 170.527 444.12 170.896 445.048 170.896H542.048C542.976 170.896 543.866 170.527 544.523 169.871C545.179 169.214 545.548 168.324 545.548 167.396C545.548 166.468 545.179 165.577 544.523 164.921C543.866 164.265 542.976 163.896 542.048 163.896H445.048Z" fill="#E6E6E6"/>
<path d="M445.048 184.896C444.12 184.896 443.229 185.265 442.573 185.921C441.917 186.577 441.548 187.468 441.548 188.396C441.548 189.324 441.917 190.214 442.573 190.871C443.229 191.527 444.12 191.896 445.048 191.896H610.048C610.976 191.896 611.866 191.527 612.523 190.871C613.179 190.214 613.548 189.324 613.548 188.396C613.548 187.468 613.179 186.577 612.523 185.921C611.866 185.265 610.976 184.896 610.048 184.896H445.048Z" fill="#E6E6E6"/>
<path d="M875.548 363.384H605.548C604.222 363.382 602.951 362.855 602.014 361.918C601.077 360.98 600.549 359.71 600.548 358.384V291.408C600.549 290.083 601.077 288.812 602.014 287.875C602.951 286.937 604.222 286.41 605.548 286.408H875.548C876.874 286.41 878.145 286.937 879.082 287.875C880.019 288.812 880.547 290.083 880.548 291.408V358.384C880.547 359.71 880.019 360.98 879.082 361.918C878.145 362.855 876.874 363.382 875.548 363.384ZM605.548 288.408C604.752 288.409 603.99 288.726 603.427 289.288C602.865 289.85 602.549 290.613 602.548 291.408V358.384C602.549 359.179 602.865 359.942 603.427 360.504C603.99 361.067 604.752 361.383 605.548 361.384H875.548C876.344 361.383 877.106 361.067 877.669 360.504C878.231 359.942 878.547 359.179 878.548 358.384V291.408C878.547 290.613 878.231 289.85 877.669 289.288C877.106 288.726 876.344 288.409 875.548 288.408H605.548Z" fill="#E6E6E6"/>
<path d="M640.548 345.896C652.146 345.896 661.548 336.494 661.548 324.896C661.548 313.298 652.146 303.896 640.548 303.896C628.95 303.896 619.548 313.298 619.548 324.896C619.548 336.494 628.95 345.896 640.548 345.896Z" fill="#AEEA00"/>
<path d="M689.048 310.896C688.12 310.896 687.229 311.265 686.573 311.921C685.917 312.577 685.548 313.468 685.548 314.396C685.548 315.324 685.917 316.214 686.573 316.871C687.229 317.527 688.12 317.896 689.048 317.896H778.048C778.976 317.896 779.866 317.527 780.523 316.871C781.179 316.214 781.548 315.324 781.548 314.396C781.548 313.468 781.179 312.577 780.523 311.921C779.866 311.265 778.976 310.896 778.048 310.896H689.048Z" fill="#E6E6E6"/>
<path d="M689.048 331.896C688.12 331.896 687.229 332.265 686.573 332.921C685.917 333.577 685.548 334.468 685.548 335.396C685.548 336.324 685.917 337.214 686.573 337.871C687.229 338.527 688.12 338.896 689.048 338.896H854.048C854.976 338.896 855.866 338.527 856.523 337.871C857.179 337.214 857.548 336.324 857.548 335.396C857.548 334.468 857.179 333.577 856.523 332.921C855.866 332.265 854.976 331.896 854.048 331.896H689.048Z" fill="#E6E6E6"/>
</g>
<defs>
<linearGradient id="paint0_linear" x1="192.689" y1="188.826" x2="192.689" y2="107.014" gradientUnits="userSpaceOnUse">
<stop stop-color="#808080" stop-opacity="0.25"/>
<stop offset="0.54" stop-color="#808080" stop-opacity="0.12"/>
<stop offset="1" stop-color="#808080" stop-opacity="0.1"/>
</linearGradient>
<clipPath id="clip0">
<rect width="983.548" height="576.157" fill="white"/>
</clipPath>
</defs>
</svg>
